<?xml version="1.0" encoding="utf-8"?>
<!-- Generator: Adobe Illustrator 22.1.0, SVG Export Plug-In . SVG Version: 6.00 Build 0)  -->
<svg version="1.1" id="Capa_1" xmlns="http://www.w3.org/2000/svg" xmlns:xlink="http://www.w3.org/1999/xlink" x="0px" y="0px"
	 viewBox="0 0 480 480" style="enable-background:new 0 0 480 480;" xml:space="preserve">
<style type="text/css">
	.st0{fill:url(#SVGID_1_);}
	.st1{fill:url(#SVGID_2_);}
	.st2{fill:url(#SVGID_3_);}
	.st3{fill:url(#SVGID_4_);}
	.st4{fill:url(#SVGID_5_);}
	.st5{fill:url(#SVGID_6_);}
	.st6{fill:url(#SVGID_7_);}
	.st7{fill:url(#SVGID_8_);}
	.st8{fill:url(#SVGID_9_);}
	.st9{fill:url(#SVGID_10_);}
	.st10{fill:url(#SVGID_11_);}
	.st11{fill:url(#SVGID_12_);}
	.st12{fill:url(#SVGID_13_);}
	.st13{fill:url(#SVGID_14_);}
	.st14{fill:url(#SVGID_15_);}
	.st15{fill:url(#SVGID_16_);}
	.st16{fill:url(#SVGID_17_);}
	.st17{fill:#E7853D;}
	.st18{fill:#DF5E00;}
</style>
<linearGradient id="SVGID_1_" gradientUnits="userSpaceOnUse" x1="-184.375" y1="-13.6844" x2="-184.375" y2="-73.8494" gradientTransform="matrix(8 0 0 8 1715 577.7953)">
	<stop  offset="0" style="stop-color:#DF5E00"/>
	<stop  offset="1" style="stop-color:#E7853D"/>
</linearGradient>
<path class="st0" d="M240,408c-92.8,0-168-75.2-168-168S147.2,72,240,72s168,75.2,168,168C407.9,332.7,332.7,407.9,240,408z M240,88
	c-83.9,0-152,68.1-152,152s68.1,152,152,152s152-68.1,152-152C391.9,156.1,323.9,88.1,240,88z"/>
<linearGradient id="SVGID_2_" gradientUnits="userSpaceOnUse" x1="-184.375" y1="-13.6844" x2="-184.375" y2="-73.8494" gradientTransform="matrix(8 0 0 8 1715 577.7953)">
	<stop  offset="0" style="stop-color:#DF5E00"/>
	<stop  offset="1" style="stop-color:#E7853D"/>
</linearGradient>
<path class="st1" d="M240,64c-4.4,0-8-3.6-8-8V8c0-4.4,3.6-8,8-8s8,3.6,8,8v48C248,60.4,244.4,64,240,64z"/>
<linearGradient id="SVGID_3_" gradientUnits="userSpaceOnUse" x1="-193.9452" y1="-13.6844" x2="-193.9452" y2="-73.8494" gradientTransform="matrix(8 0 0 8 1715 577.7953)">
	<stop  offset="0" style="stop-color:#DF5E00"/>
	<stop  offset="1" style="stop-color:#E7853D"/>
</linearGradient>
<path class="st2" d="M169.6,78c-3.2,0-6.2-1.9-7.4-4.9L150,43.5c-1.8-4,0.1-8.8,4.1-10.5s8.8,0.1,10.5,4.1c0,0.1,0.1,0.2,0.1,0.3
	L177,66.9c1.7,4.1-0.2,8.8-4.3,10.5C171.7,77.8,170.6,78,169.6,78z"/>
<linearGradient id="SVGID_4_" gradientUnits="userSpaceOnUse" x1="-207.4824" y1="-13.6844" x2="-207.4824" y2="-73.8494" gradientTransform="matrix(8 0 0 8 1715 577.7953)">
	<stop  offset="0" style="stop-color:#DF5E00"/>
	<stop  offset="1" style="stop-color:#E7853D"/>
</linearGradient>
<path class="st3" d="M70,177.6c-1,0-2.1-0.2-3.1-0.6l-29.6-12.2c-4.1-1.6-6.2-6.2-4.5-10.4s6.2-6.2,10.4-4.5c0.1,0,0.2,0.1,0.3,0.1
	l29.6,12.2c4.1,1.7,6,6.4,4.4,10.4C76.2,175.7,73.3,177.6,70,177.6z"/>
<linearGradient id="SVGID_5_" gradientUnits="userSpaceOnUse" x1="-207.4701" y1="-13.6844" x2="-207.4701" y2="-73.8494" gradientTransform="matrix(8 0 0 8 1715 577.7953)">
	<stop  offset="0" style="stop-color:#DF5E00"/>
	<stop  offset="1" style="stop-color:#E7853D"/>
</linearGradient>
<path class="st4" d="M40.4,330.7c-4.4,0-8-3.6-8-8c0-3.2,1.9-6.2,4.9-7.4L67,303c4.1-1.7,8.8,0.2,10.5,4.3s-0.2,8.8-4.3,10.5l0,0
	L43.5,330C42.5,330.5,41.5,330.7,40.4,330.7z"/>
<linearGradient id="SVGID_6_" gradientUnits="userSpaceOnUse" x1="-193.942" y1="-13.6844" x2="-193.942" y2="-73.8494" gradientTransform="matrix(8 0 0 8 1715 577.7953)">
	<stop  offset="0" style="stop-color:#DF5E00"/>
	<stop  offset="1" style="stop-color:#E7853D"/>
</linearGradient>
<path class="st5" d="M157.3,447.6c-1,0-2.1-0.2-3.1-0.6c-4.1-1.7-6-6.4-4.3-10.5c0,0,0,0,0,0l12.2-29.6c1.7-4.1,6.4-6,10.5-4.3
	s6,6.4,4.3,10.5l0,0l-12.2,29.6C163.5,445.6,160.6,447.6,157.3,447.6z"/>
<linearGradient id="SVGID_7_" gradientUnits="userSpaceOnUse" x1="-174.8079" y1="-13.6844" x2="-174.8079" y2="-73.8494" gradientTransform="matrix(8 0 0 8 1715 577.7953)">
	<stop  offset="0" style="stop-color:#DF5E00"/>
	<stop  offset="1" style="stop-color:#E7853D"/>
</linearGradient>
<path class="st6" d="M322.7,447.6c-3.2,0-6.2-1.9-7.4-4.9L303,413c-1.7-4.1,0.2-8.8,4.3-10.5s8.8,0.2,10.5,4.3l0,0l12.2,29.6
	c1.7,4.1-0.2,8.8-4.3,10.5c0,0,0,0,0,0C324.8,447.4,323.7,447.6,322.7,447.6z"/>
<linearGradient id="SVGID_8_" gradientUnits="userSpaceOnUse" x1="-161.2798" y1="-13.6844" x2="-161.2798" y2="-73.8494" gradientTransform="matrix(8 0 0 8 1715 577.7953)">
	<stop  offset="0" style="stop-color:#DF5E00"/>
	<stop  offset="1" style="stop-color:#E7853D"/>
</linearGradient>
<path class="st7" d="M439.6,330.7c-1,0-2.1-0.2-3.1-0.6l-29.6-12.2c-4.1-1.7-6-6.4-4.3-10.5s6.4-6,10.5-4.3l29.6,12.2
	c4.1,1.7,6,6.4,4.3,10.5C445.7,328.7,442.8,330.7,439.6,330.7z"/>
<linearGradient id="SVGID_9_" gradientUnits="userSpaceOnUse" x1="-161.2675" y1="-13.6844" x2="-161.2675" y2="-73.8494" gradientTransform="matrix(8 0 0 8 1715 577.7953)">
	<stop  offset="0" style="stop-color:#DF5E00"/>
	<stop  offset="1" style="stop-color:#E7853D"/>
</linearGradient>
<path class="st8" d="M410,177.6c-4.4,0-8-3.5-8-8c0-3.3,1.9-6.2,5-7.4l29.6-12.2c4-1.8,8.8,0.1,10.5,4.1s-0.1,8.8-4.1,10.5
	c-0.1,0-0.2,0.1-0.3,0.1L413.1,177C412.1,177.4,411,177.6,410,177.6z"/>
<linearGradient id="SVGID_10_" gradientUnits="userSpaceOnUse" x1="-174.8046" y1="-13.6844" x2="-174.8046" y2="-73.8494" gradientTransform="matrix(8 0 0 8 1715 577.7953)">
	<stop  offset="0" style="stop-color:#DF5E00"/>
	<stop  offset="1" style="stop-color:#E7853D"/>
</linearGradient>
<path class="st9" d="M310.4,78c-4.4,0-8-3.6-8-8c0-1,0.2-2.1,0.6-3.1l12.2-29.6c1.6-4.1,6.2-6.2,10.4-4.5c4.1,1.6,6.2,6.2,4.5,10.4
	c0,0.1-0.1,0.2-0.1,0.3l-12.2,29.6C316.6,76.1,313.6,78,310.4,78z"/>
<linearGradient id="SVGID_11_" gradientUnits="userSpaceOnUse" x1="-202.7755" y1="-13.6844" x2="-202.7755" y2="-73.8494" gradientTransform="matrix(8 0 0 8 1715 577.7953)">
	<stop  offset="0" style="stop-color:#DF5E00"/>
	<stop  offset="1" style="stop-color:#E7853D"/>
</linearGradient>
<path class="st10" d="M109.9,117.9c-2.1,0-4.2-0.8-5.7-2.3L70.3,81.6c-3.3-3-3.5-8.1-0.5-11.3s8.1-3.5,11.3-0.5
	c0.2,0.2,0.3,0.3,0.5,0.5l33.9,33.9c3.1,3.1,3.1,8.2,0,11.3C114,117,112,117.9,109.9,117.9L109.9,117.9z"/>
<linearGradient id="SVGID_12_" gradientUnits="userSpaceOnUse" x1="-210.375" y1="-13.6844" x2="-210.375" y2="-73.8494" gradientTransform="matrix(8 0 0 8 1715 577.7953)">
	<stop  offset="0" style="stop-color:#DF5E00"/>
	<stop  offset="1" style="stop-color:#E7853D"/>
</linearGradient>
<path class="st11" d="M56,248H8c-4.4,0-8-3.6-8-8s3.6-8,8-8h48c4.4,0,8,3.6,8,8S60.4,248,56,248z"/>
<linearGradient id="SVGID_13_" gradientUnits="userSpaceOnUse" x1="-202.7537" y1="-13.6844" x2="-202.7537" y2="-73.8494" gradientTransform="matrix(8 0 0 8 1715 577.7953)">
	<stop  offset="0" style="stop-color:#DF5E00"/>
	<stop  offset="1" style="stop-color:#E7853D"/>
</linearGradient>
<path class="st12" d="M76,412c-4.4,0-8-3.6-8-8c0-2.1,0.8-4.2,2.3-5.7l33.9-33.9c3.1-3.2,8.1-3.3,11.3-0.2c3.2,3.1,3.3,8.1,0.2,11.3
	c-0.1,0.1-0.1,0.1-0.2,0.2l-33.9,33.9C80.1,411.2,78.1,412,76,412z"/>
<linearGradient id="SVGID_14_" gradientUnits="userSpaceOnUse" x1="-184.375" y1="-13.6844" x2="-184.375" y2="-73.8494" gradientTransform="matrix(8 0 0 8 1715 577.7953)">
	<stop  offset="0" style="stop-color:#DF5E00"/>
	<stop  offset="1" style="stop-color:#E7853D"/>
</linearGradient>
<path class="st13" d="M240,480c-4.4,0-8-3.6-8-8v-48c0-4.4,3.6-8,8-8s8,3.6,8,8v48C248,476.4,244.4,480,240,480z"/>
<g>
	
		<linearGradient id="SVGID_15_" gradientUnits="userSpaceOnUse" x1="-165.9962" y1="-13.6844" x2="-165.9962" y2="-73.8494" gradientTransform="matrix(8 0 0 8 1715 577.7953)">
		<stop  offset="0" style="stop-color:#DF5E00"/>
		<stop  offset="1" style="stop-color:#E7853D"/>
	</linearGradient>
	<path class="st14" d="M404,412c-2.1,0-4.2-0.8-5.7-2.3l-33.9-33.9c-3.2-3.1-3.3-8.1-0.2-11.3c3.1-3.2,8.1-3.3,11.3-0.2
		c0.1,0.1,0.1,0.1,0.2,0.2l33.9,33.9c3.1,3.1,3.1,8.2,0,11.3C408.2,411.2,406.2,412.1,404,412L404,412z"/>
	
		<linearGradient id="SVGID_16_" gradientUnits="userSpaceOnUse" x1="-158.375" y1="-13.6844" x2="-158.375" y2="-73.8494" gradientTransform="matrix(8 0 0 8 1715 577.7953)">
		<stop  offset="0" style="stop-color:#DF5E00"/>
		<stop  offset="1" style="stop-color:#E7853D"/>
	</linearGradient>
	<path class="st15" d="M472,248h-48c-4.4,0-8-3.6-8-8s3.6-8,8-8h48c4.4,0,8,3.6,8,8S476.4,248,472,248z"/>
	
		<linearGradient id="SVGID_17_" gradientUnits="userSpaceOnUse" x1="-165.975" y1="-13.6844" x2="-165.975" y2="-73.8494" gradientTransform="matrix(8 0 0 8 1715 577.7953)">
		<stop  offset="0" style="stop-color:#DF5E00"/>
		<stop  offset="1" style="stop-color:#E7853D"/>
	</linearGradient>
	<path class="st16" d="M370.1,117.9c-4.4,0-8-3.6-8-8c0-2.1,0.8-4.2,2.3-5.7l33.9-33.9c3-3.3,8.1-3.5,11.3-0.5
		c3.3,3,3.5,8.1,0.5,11.3c-0.1,0.2-0.3,0.3-0.5,0.5l-33.9,33.9C374.3,117,372.2,117.9,370.1,117.9L370.1,117.9z"/>
</g>
<rect x="709" y="-41.7" class="st17" width="104" height="98"/>
<rect x="691" y="108.3" class="st18" width="104" height="98"/>
</svg>
