<?xml version="1.0" encoding="utf-8"?>
<!-- Generator: Adobe Illustrator 22.1.0, SVG Export Plug-In . SVG Version: 6.00 Build 0)  -->
<svg version="1.1" id="Capa_1" xmlns="http://www.w3.org/2000/svg" xmlns:xlink="http://www.w3.org/1999/xlink" x="0px" y="0px"
	 viewBox="0 0 482.9 482.9" style="enable-background:new 0 0 482.9 482.9;" xml:space="preserve">
<style type="text/css">
	.st0{fill:url(#SVGID_1_);}
	.st1{fill:url(#SVGID_2_);}
	.st2{fill:url(#SVGID_3_);}
	.st3{fill:url(#SVGID_4_);}
	.st4{fill:url(#SVGID_5_);}
	.st5{fill:url(#SVGID_6_);}
	.st6{fill:url(#SVGID_7_);}
	.st7{fill:url(#SVGID_8_);}
	.st8{fill:url(#SVGID_9_);}
	.st9{fill:url(#SVGID_10_);}
	.st10{fill:url(#SVGID_11_);}
	.st11{fill:url(#SVGID_12_);}
	.st12{fill:url(#SVGID_13_);}
	.st13{fill:#E7853D;}
	.st14{fill:#DF5E00;}
</style>
<linearGradient id="SVGID_1_" gradientUnits="userSpaceOnUse" x1="-183.183" y1="-16.0694" x2="-183.183" y2="-76.4924" gradientTransform="matrix(8 0 0 8 1706.895 595.2753)">
	<stop  offset="0" style="stop-color:#DF5E00"/>
	<stop  offset="1" style="stop-color:#E7853D"/>
</linearGradient>
<path class="st0" d="M463.6,326.2c-30,13.6-62.5,20.6-95.4,20.6c-128.1-0.1-231.9-103.9-232-232c-0.1-32.9,6.9-65.5,20.6-95.4
	L165.5,0l-19.4,8.7C21.3,65-34.3,211.8,22,336.7s203.1,180.5,328,124.2c55.2-24.9,99.3-69,124.2-124.2l8.7-19.4L463.6,326.2z
	 M248.2,466.7c-128.1,0-232-103.9-232-232c0-83.7,45.1-160.8,117.9-202c-9.3,26.3-14,54.1-13.9,82c0.2,136.9,111.1,247.8,248,248
	c27.9,0.1,55.7-4.6,82-13.9C409,421.6,331.8,466.7,248.2,466.7z"/>
<g>
	
		<linearGradient id="SVGID_2_" gradientUnits="userSpaceOnUse" x1="-164.3421" y1="-16.0694" x2="-164.3421" y2="-76.4924" gradientTransform="matrix(8 0 0 8 1706.895 595.2753)">
		<stop  offset="0" style="stop-color:#DF5E00"/>
		<stop  offset="1" style="stop-color:#E7853D"/>
	</linearGradient>
	<path class="st1" d="M384.2,50.7h16v32h-16V50.7z"/>
	
		<linearGradient id="SVGID_3_" gradientUnits="userSpaceOnUse" x1="-164.3421" y1="-16.0694" x2="-164.3421" y2="-76.4924" gradientTransform="matrix(8 0 0 8 1706.895 595.2753)">
		<stop  offset="0" style="stop-color:#DF5E00"/>
		<stop  offset="1" style="stop-color:#E7853D"/>
	</linearGradient>
	<path class="st2" d="M384.2,98.7h16v32h-16V98.7z"/>
	
		<linearGradient id="SVGID_4_" gradientUnits="userSpaceOnUse" x1="-161.3421" y1="-16.0694" x2="-161.3421" y2="-76.4924" gradientTransform="matrix(8 0 0 8 1706.895 595.2753)">
		<stop  offset="0" style="stop-color:#DF5E00"/>
		<stop  offset="1" style="stop-color:#E7853D"/>
	</linearGradient>
	<path class="st3" d="M400.2,82.7h32v16h-32V82.7z"/>
	
		<linearGradient id="SVGID_5_" gradientUnits="userSpaceOnUse" x1="-167.3421" y1="-16.0694" x2="-167.3421" y2="-76.4924" gradientTransform="matrix(8 0 0 8 1706.895 595.2753)">
		<stop  offset="0" style="stop-color:#DF5E00"/>
		<stop  offset="1" style="stop-color:#E7853D"/>
	</linearGradient>
	<path class="st4" d="M352.2,82.7h32v16h-32V82.7z"/>
	
		<linearGradient id="SVGID_6_" gradientUnits="userSpaceOnUse" x1="-164.3421" y1="-16.0694" x2="-164.3421" y2="-76.4924" gradientTransform="matrix(8 0 0 8 1706.895 595.2753)">
		<stop  offset="0" style="stop-color:#DF5E00"/>
		<stop  offset="1" style="stop-color:#E7853D"/>
	</linearGradient>
	<path class="st5" d="M384.2,162.7h16v32h-16V162.7z"/>
	
		<linearGradient id="SVGID_7_" gradientUnits="userSpaceOnUse" x1="-164.3421" y1="-16.0694" x2="-164.3421" y2="-76.4924" gradientTransform="matrix(8 0 0 8 1706.895 595.2753)">
		<stop  offset="0" style="stop-color:#DF5E00"/>
		<stop  offset="1" style="stop-color:#E7853D"/>
	</linearGradient>
	<path class="st6" d="M384.2,210.7h16v32h-16V210.7z"/>
	
		<linearGradient id="SVGID_8_" gradientUnits="userSpaceOnUse" x1="-161.3421" y1="-16.0694" x2="-161.3421" y2="-76.4924" gradientTransform="matrix(8 0 0 8 1706.895 595.2753)">
		<stop  offset="0" style="stop-color:#DF5E00"/>
		<stop  offset="1" style="stop-color:#E7853D"/>
	</linearGradient>
	<path class="st7" d="M400.2,194.7h32v16h-32V194.7z"/>
	
		<linearGradient id="SVGID_9_" gradientUnits="userSpaceOnUse" x1="-167.3421" y1="-16.0694" x2="-167.3421" y2="-76.4924" gradientTransform="matrix(8 0 0 8 1706.895 595.2753)">
		<stop  offset="0" style="stop-color:#DF5E00"/>
		<stop  offset="1" style="stop-color:#E7853D"/>
	</linearGradient>
	<path class="st8" d="M352.2,194.7h32v16h-32V194.7z"/>
	
		<linearGradient id="SVGID_10_" gradientUnits="userSpaceOnUse" x1="-178.3421" y1="-16.0694" x2="-178.3421" y2="-76.4924" gradientTransform="matrix(8 0 0 8 1706.895 595.2753)">
		<stop  offset="0" style="stop-color:#DF5E00"/>
		<stop  offset="1" style="stop-color:#E7853D"/>
	</linearGradient>
	<path class="st9" d="M272.2,122.7h16v16h-16V122.7z"/>
	
		<linearGradient id="SVGID_11_" gradientUnits="userSpaceOnUse" x1="-178.3421" y1="-16.0694" x2="-178.3421" y2="-76.4924" gradientTransform="matrix(8 0 0 8 1706.895 595.2753)">
		<stop  offset="0" style="stop-color:#DF5E00"/>
		<stop  offset="1" style="stop-color:#E7853D"/>
	</linearGradient>
	<path class="st10" d="M272.2,154.7h16v16h-16V154.7z"/>
	
		<linearGradient id="SVGID_12_" gradientUnits="userSpaceOnUse" x1="-176.3421" y1="-16.0694" x2="-176.3421" y2="-76.4924" gradientTransform="matrix(8 0 0 8 1706.895 595.2753)">
		<stop  offset="0" style="stop-color:#DF5E00"/>
		<stop  offset="1" style="stop-color:#E7853D"/>
	</linearGradient>
	<path class="st11" d="M288.2,138.7h16v16h-16V138.7z"/>
	
		<linearGradient id="SVGID_13_" gradientUnits="userSpaceOnUse" x1="-180.3421" y1="-16.0694" x2="-180.3421" y2="-76.4924" gradientTransform="matrix(8 0 0 8 1706.895 595.2753)">
		<stop  offset="0" style="stop-color:#DF5E00"/>
		<stop  offset="1" style="stop-color:#E7853D"/>
	</linearGradient>
	<path class="st12" d="M256.2,138.7h16v16h-16V138.7z"/>
</g>
<rect x="-321" y="162.7" class="st13" width="104" height="98"/>
<rect x="-339" y="312.7" class="st14" width="104" height="98"/>
</svg>
