<?xml version="1.0" encoding="utf-8"?>
<!-- Generator: Adobe Illustrator 22.1.0, SVG Export Plug-In . SVG Version: 6.00 Build 0)  -->
<svg version="1.1" id="Capa_1" xmlns="http://www.w3.org/2000/svg" xmlns:xlink="http://www.w3.org/1999/xlink" x="0px" y="0px"
	 viewBox="0 0 479.9 479.9" style="enable-background:new 0 0 479.9 479.9;" xml:space="preserve">
<style type="text/css">
	.st0{fill:url(#SVGID_1_);}
	.st1{fill:url(#SVGID_2_);}
	.st2{fill:url(#SVGID_3_);}
	.st3{fill:url(#SVGID_4_);}
	.st4{fill:url(#SVGID_5_);}
	.st5{fill:url(#SVGID_6_);}
	.st6{fill:url(#SVGID_7_);}
	.st7{fill:url(#SVGID_8_);}
	.st8{fill:#E7853D;}
	.st9{fill:#DF5E00;}
</style>
<g>
	
		<linearGradient id="SVGID_1_" gradientUnits="userSpaceOnUse" x1="-184.4709" y1="-24.463" x2="-184.4709" y2="-69.737" gradientTransform="matrix(8 0 0 8 1715.7161 595.9901)">
		<stop  offset="0" style="stop-color:#DF5E00"/>
		<stop  offset="1" style="stop-color:#E7853D"/>
	</linearGradient>
	<path class="st0" d="M423.9,282c-2.9,0-5.8,0.2-8.7,0.7c4.7-30.6-16.3-59.3-46.9-64c-2.8-0.4-5.6-0.6-8.4-0.7
		c-5.9,0-11.7,0.9-17.2,2.8c-0.3,0.1-0.6,0.2-0.9,0.3c-9.7-48.5-52.4-83.3-101.8-83.1c-6.3,0-12.6,0.7-18.8,1.9
		c-2.8-3.6-6.1-6.7-9.9-9.4c-6.8-4.8-14.7-7.6-23-8.3c-4.8-0.6-9.7-0.3-14.4,0.8c-4.9-18.1-18.6-32.4-36.4-38.2
		c-5.6-1.9-11.5-2.9-17.5-2.8c-31,0.1-56.1,25.2-56,56.2c0,2.8,0.2,5.7,0.7,8.4C34,142,5.4,162.9,0.7,193.5s16.2,59.2,46.8,63.9
		c2.8,0.4,5.6,0.6,8.4,0.7h81.3c6.2,39.5,34.5,72,72.8,83.6c-0.9,2.7-1.5,5.6-1.9,8.4c-0.1,1.4-0.2,2.6-0.2,4
		c0.1,22.1,17.9,39.9,40,40h176c30.9,0,56-25.1,56-56S454.8,282,423.9,282L423.9,282z M55.9,242c-22.1,0-40-17.9-40-40
		s17.9-40,40-40c6,0,11.9,1.3,17.2,3.9c4,1.9,8.8,0.3,10.7-3.7c1.1-2.2,1.1-4.8,0-7c-2.6-5.4-3.9-11.3-3.9-17.2
		c0-22.1,17.9-40,40-40c4.2,0,8.4,0.7,12.5,2c8.7,2.8,16.2,8.5,21.1,16.2c3,4.7,5,9.9,5.9,15.4c0.2,0.8,0.3,1.6,0.3,2.4
		c0.3,4.4,4.1,7.8,8.5,7.5c1-0.1,1.9-0.3,2.8-0.7c4.1-1.8,8.5-2.8,12.9-2.8c0.8,0,1.7,0,2.5,0.1c5.7,0.4,11.1,2.3,15.7,5.6
		c0.4,0.3,0.8,0.6,1.2,0.9c-0.8,0.3-1.6,0.7-2.4,1c-1.2,0.5-2.4,0.9-3.5,1.5c-1.4,0.6-2.9,1.3-4.3,2c-1.1,0.5-2.2,1.1-3.2,1.6
		c-1.5,0.8-2.9,1.6-4.3,2.5c-0.9,0.6-1.9,1.1-2.8,1.7c-1.6,1-3,2.1-4.5,3.2c-0.7,0.5-1.5,1-2.2,1.6c-2.2,1.7-4.3,3.4-6.3,5.3
		l-0.1,0.1c-2,1.8-3.9,3.7-5.7,5.6c-0.6,0.6-1.2,1.3-1.8,2c-1.2,1.4-2.4,2.8-3.6,4.2c-0.7,0.8-1.3,1.7-1.9,2.5c-1,1.3-2,2.7-3,4.1
		c-0.6,0.9-1.2,1.9-1.8,2.8c-0.9,1.4-1.7,2.7-2.5,4.1c-0.6,1-1.1,2-1.6,3c-0.7,1.4-1.5,2.8-2.1,4.3c-0.5,1.1-1,2.1-1.4,3.2
		c-0.6,1.5-1.2,3-1.8,4.5c-0.4,1.1-0.8,2.2-1.2,3.3c-0.5,1.5-1,3.1-1.4,4.7c-0.3,1.1-0.6,2.2-0.9,3.3c-0.4,1.6-0.7,3.3-1.1,5
		c-0.2,1.1-0.5,2.2-0.6,3.2c-0.3,1.9-0.5,3.8-0.7,5.6c-0.1,0.9-0.2,1.9-0.3,2.8c-0.3,2.8-0.4,5.7-0.4,8.6H55.9z M152.2,249.3
		c-0.2-2.4-0.3-4.8-0.3-7.3s0.1-5.1,0.3-7.6c2.9-35.1,26.6-65,60-75.9c2.4-0.8,4.8-1.5,7.3-2h0.1c6.7-1.6,13.5-2.4,20.4-2.4
		c43.6-0.2,80.6,31.7,87,74.8c-0.1,0.1-0.2,0.2-0.3,0.3c-2.4,1.8-4.6,3.8-6.7,5.9c-0.5,0.5-0.9,1-1.4,1.5c-2.1,2.2-4,4.7-5.7,7.2
		c-3.1,4.8-5.4,10-6.9,15.4c-3.3-0.7-6.7-1-10-1c-1.2,0-2.4,0-3.6,0.2c-6.4,0.4-12.6,2.2-18.2,5.1c-1.9,1-3.8,2.1-5.5,3.3
		c-4.4,3-8.2,6.8-11.4,11.1c-4.7,6.5-7.7,14-8.8,21.9c-0.7,4.8-0.6,9.7,0.2,14.4c-5.7-0.1-11.3,1-16.5,3.3c-2.4,1.1-4.6,2.4-6.8,3.8
		c-0.5,0.4-1,0.7-1.5,1.1c-2.1,1.5-4,3.2-5.7,5.1C181.8,318,155.3,286.7,152.2,249.3L152.2,249.3z M423.9,378h-176
		c-4.3,0-8.5-1.2-12.2-3.4c-7.3-4.3-11.8-12.1-11.8-20.6c0-1,0.1-1.9,0.1-2.7c0.4-3.8,1.8-7.5,4-10.7c4.5-6.6,11.9-10.6,19.9-10.6
		c2.2,0,4.3,0.4,6.4,1c1,0.2,2,0.6,3,1c4,1.8,8.8,0,10.6-4.1c1-2.3,0.9-4.9-0.3-7c-2.4-4.6-3.7-9.7-3.7-14.9c0-1.4,0.1-2.9,0.3-4.3
		c1.2-8.9,6-16.9,13.4-22c4.9-3.4,10.6-5.3,16.5-5.6c0.3,0,0.6-0.1,1-0.1c0.3,0,0.6,0.1,0.9,0.1c4.4,0,8.8,0.9,12.8,2.7
		c4,1.8,8.8,0,10.6-4c0.4-0.9,0.6-1.8,0.7-2.8c0.1-0.9,0.2-1.8,0.4-2.7c1.9-11.6,8.9-21.7,19-27.7c2.6-1.5,5.3-2.8,8.1-3.6
		c4-1.3,8.1-2,12.3-2c22.1,0,40,17.9,40,40c0,6-1.3,11.9-3.9,17.2c-1.9,4-0.3,8.8,3.7,10.7c2.2,1.1,4.8,1.1,7,0
		c5.4-2.6,11.3-3.9,17.2-3.9c22.1,0,40,17.9,40,40S446,378,423.9,378L423.9,378z"/>
	
		<linearGradient id="SVGID_2_" gradientUnits="userSpaceOnUse" x1="-184.4773" y1="-24.463" x2="-184.4773" y2="-69.737" gradientTransform="matrix(8 0 0 8 1715.7161 595.9901)">
		<stop  offset="0" style="stop-color:#DF5E00"/>
		<stop  offset="1" style="stop-color:#E7853D"/>
	</linearGradient>
	<path class="st1" d="M239.9,122c4.4,0,8-3.6,8-8V82c0-4.4-3.6-8-8-8s-8,3.6-8,8v32C231.9,118.4,235.5,122,239.9,122z"/>
</g>
<g>
	
		<linearGradient id="SVGID_3_" gradientUnits="userSpaceOnUse" x1="-201.1066" y1="-24.463" x2="-201.1066" y2="-69.737" gradientTransform="matrix(8 0 0 8 1715.7161 595.9901)">
		<stop  offset="0" style="stop-color:#DF5E00"/>
		<stop  offset="1" style="stop-color:#E7853D"/>
	</linearGradient>
	<path class="st2" d="M129,287.9c-1.7-4.1-6.4-6-10.5-4.3c0,0,0,0,0,0L89,295.9c-4.1,1.7-6,6.4-4.3,10.5s6.4,6,10.5,4.3l29.6-12.2
		C128.8,296.7,130.7,292,129,287.9L129,287.9z"/>
	
		<linearGradient id="SVGID_4_" gradientUnits="userSpaceOnUse" x1="-191.3661" y1="-24.463" x2="-191.3661" y2="-69.737" gradientTransform="matrix(8 0 0 8 1715.7161 595.9901)">
		<stop  offset="0" style="stop-color:#DF5E00"/>
		<stop  offset="1" style="stop-color:#E7853D"/>
	</linearGradient>
	<path class="st3" d="M194,360.9c-4.1-1.7-8.8,0.2-10.5,4.3c0,0,0,0,0,0l-12.2,29.6c-1.7,4.1,0.2,8.8,4.3,10.5s8.8-0.2,10.5-4.3
		l12.2-29.6C200,367.3,198.1,362.6,194,360.9z"/>
	
		<linearGradient id="SVGID_5_" gradientUnits="userSpaceOnUse" x1="-167.8451" y1="-24.463" x2="-167.8451" y2="-69.737" gradientTransform="matrix(8 0 0 8 1715.7161 595.9901)">
		<stop  offset="0" style="stop-color:#DF5E00"/>
		<stop  offset="1" style="stop-color:#E7853D"/>
	</linearGradient>
	<path class="st4" d="M350.8,196.1c1.7,4.1,6.4,6,10.5,4.3c0,0,0,0,0,0l29.6-12.2c4.1-1.7,6-6.4,4.3-10.5s-6.4-6-10.5-4.3
		l-29.6,12.2C351,187.3,349.1,192,350.8,196.1C350.8,196.1,350.8,196.1,350.8,196.1z"/>
	
		<linearGradient id="SVGID_6_" gradientUnits="userSpaceOnUse" x1="-177.5887" y1="-24.463" x2="-177.5887" y2="-69.737" gradientTransform="matrix(8 0 0 8 1715.7161 595.9901)">
		<stop  offset="0" style="stop-color:#DF5E00"/>
		<stop  offset="1" style="stop-color:#E7853D"/>
	</linearGradient>
	<path class="st5" d="M285.8,131.2c1,0.4,2,0.6,3.1,0.6c3.2,0,6.2-1.9,7.4-4.9l12.2-29.6c1.7-4.1-0.2-8.8-4.3-10.5
		c-4.1-1.7-8.8,0.2-10.5,4.3l0,0l-12.2,29.6C279.8,124.8,281.7,129.5,285.8,131.2z"/>
	
		<linearGradient id="SVGID_7_" gradientUnits="userSpaceOnUse" x1="-197.2109" y1="-24.463" x2="-197.2109" y2="-69.737" gradientTransform="matrix(8 0 0 8 1715.7161 595.9901)">
		<stop  offset="0" style="stop-color:#DF5E00"/>
		<stop  offset="1" style="stop-color:#E7853D"/>
	</linearGradient>
	<path class="st6" d="M143.7,326.9l-22.6,22.6c-3.2,3.1-3.3,8.1-0.2,11.3c3.1,3.2,8.1,3.3,11.3,0.2c0.1-0.1,0.1-0.1,0.2-0.2
		l22.6-22.6c3.1-3.1,3.1-8.2,0-11.3S146.9,323.7,143.7,326.9z"/>
	
		<linearGradient id="SVGID_8_" gradientUnits="userSpaceOnUse" x1="-171.7563" y1="-24.463" x2="-171.7563" y2="-69.737" gradientTransform="matrix(8 0 0 8 1715.7161 595.9901)">
		<stop  offset="0" style="stop-color:#DF5E00"/>
		<stop  offset="1" style="stop-color:#E7853D"/>
	</linearGradient>
	<path class="st7" d="M330.4,159.5c2.1,0,4.2-0.8,5.7-2.3l22.6-22.6c3.1-3.2,3-8.2-0.2-11.3c-3.1-3-8-3-11.1,0l-22.6,22.6
		c-3.1,3.1-3.1,8.2,0,11.3C326.2,158.7,328.3,159.5,330.4,159.5L330.4,159.5z"/>
</g>
<rect x="-184" y="131.3" class="st8" width="104" height="98"/>
<rect x="-184" y="252.1" class="st9" width="104" height="98"/>
</svg>
