<?xml version="1.0" encoding="utf-8"?>
<!-- Generator: Adobe Illustrator 22.1.0, SVG Export Plug-In . SVG Version: 6.00 Build 0)  -->
<svg version="1.1" id="Capa_1" xmlns="http://www.w3.org/2000/svg" xmlns:xlink="http://www.w3.org/1999/xlink" x="0px" y="0px"
	 viewBox="0 0 480.2 480.2" style="enable-background:new 0 0 480.2 480.2;" xml:space="preserve">
<style type="text/css">
	.st0{fill:url(#SVGID_1_);}
	.st1{fill:url(#SVGID_2_);}
	.st2{fill:url(#SVGID_3_);}
	.st3{fill:url(#SVGID_4_);}
	.st4{fill:url(#SVGID_5_);}
	.st5{fill:url(#SVGID_6_);}
	.st6{fill:#E7853D;}
	.st7{fill:#DF5E00;}
</style>
<linearGradient id="SVGID_1_" gradientUnits="userSpaceOnUse" x1="-184.338" y1="-96.38" x2="-184.338" y2="-141.599" gradientTransform="matrix(8 0 0 8 1714.8267 1190.8993)">
	<stop  offset="0" style="stop-color:#DF5E00"/>
	<stop  offset="1" style="stop-color:#E7853D"/>
</linearGradient>
<path class="st0" d="M376,204.1c-8.1,0-16.2,0.9-24.1,2.8c-2.8-57.3-51.6-101.5-108.9-98.7c-24.4,1.2-47.7,11-65.6,27.7
	C131,121.8,81.9,148,67.8,194.4c-4.6,15.2-5,31.3-1.2,46.7c-7.4,8.8-12.8,19.1-15.8,30.2c-38,11.7-59.3,52-47.6,90
	c9.3,30.2,37.2,50.8,68.8,50.8h304c3,0,5.8-0.1,8.7-0.3c57.2-4.7,99.9-54.9,95.2-112.1C475.5,245.6,430.3,204,376,204.1z M152,148.1
	c4.4,0,8.7,0.4,13,1.2c-1,1.3-1.9,2.7-2.8,4c-0.5,0.8-1.1,1.5-1.6,2.3c-1.7,2.6-3.3,5.3-4.7,8c-0.2,0.3-0.3,0.6-0.4,0.9
	c-1.3,2.4-2.4,4.9-3.5,7.5c-0.4,0.9-0.7,1.9-1.1,2.9c-0.7,1.9-1.4,3.9-2.1,5.9c-0.4,1.1-0.7,2.2-1,3.3c-0.5,1.9-1,3.9-1.4,5.8
	c-0.2,1.1-0.5,2.3-0.7,3.4c-0.4,2.1-0.7,4.2-0.9,6.3c-0.1,1-0.3,2-0.4,3c-0.3,3.2-0.4,6.3-0.4,9.5v1.6c-5.3-1.1-10.6-1.6-16-1.6
	c-2.5,0-5,0.2-7.5,0.4c-0.8,0.1-1.5,0.2-2.3,0.3c-1.8,0.2-3.5,0.5-5.2,0.8c-0.8,0.2-1.6,0.3-2.4,0.5c-1.9,0.4-3.7,0.9-5.5,1.5
	c-0.6,0.2-1.2,0.3-1.7,0.5c-2.3,0.8-4.6,1.6-6.9,2.6c-0.6,0.3-1.2,0.6-1.8,0.8c-1.7,0.8-3.3,1.6-4.9,2.4c-0.8,0.4-1.5,0.9-2.3,1.3
	c-1.5,0.8-2.9,1.8-4.3,2.7c-0.7,0.5-1.4,0.9-2,1.4c-0.3,0.2-0.6,0.4-0.8,0.6c-0.3-2.5-0.4-5.1-0.4-7.6
	C80.1,180.4,112.3,148.2,152,148.1L152,148.1z M383.3,395.8c-2.4,0.2-4.8,0.3-7.3,0.3H72c-30.9,0-56-25.1-56-56
	c0-26,17.9-48.6,43.2-54.5c3-0.7,5.4-3.1,6-6.2c6.1-29.8,32.3-51.2,62.7-51.3c7.5,0,14.9,1.3,21.9,3.9c4.1,1.6,8.8-0.5,10.3-4.6
	c0.5-1.3,0.6-2.6,0.5-4c-0.5-3.8-0.7-7.6-0.7-11.4c0-48.6,39.4-88,88-88s88,39.4,88,88c0,1.7-0.1,3.4-0.2,5.2
	c-0.2,4.4,3.2,8.1,7.6,8.3c1,0,2.1-0.1,3.1-0.5c9.5-3.4,19.4-5.1,29.5-5c48.6-0.1,88.1,39.2,88.2,87.8
	C464.3,353.9,429.1,392.1,383.3,395.8z"/>
<g>
	
		<linearGradient id="SVGID_2_" gradientUnits="userSpaceOnUse" x1="-195.3502" y1="-96.38" x2="-195.3502" y2="-141.599" gradientTransform="matrix(8 0 0 8 1714.8267 1190.8993)">
		<stop  offset="0" style="stop-color:#DF5E00"/>
		<stop  offset="1" style="stop-color:#E7853D"/>
	</linearGradient>
	<path class="st1" d="M152,116.1c4.4,0,8-3.6,8-8v-32c0-4.4-3.6-8-8-8s-8,3.6-8,8v32C144,112.5,147.6,116.1,152,116.1z"/>
	
		<linearGradient id="SVGID_3_" gradientUnits="userSpaceOnUse" x1="-201.6208" y1="-96.38" x2="-201.6208" y2="-141.599" gradientTransform="matrix(8 0 0 8 1714.8267 1190.8993)">
		<stop  offset="0" style="stop-color:#DF5E00"/>
		<stop  offset="1" style="stop-color:#E7853D"/>
	</linearGradient>
	<path class="st2" d="M100.5,121.5c1.7,4.1,6.4,6,10.5,4.3s6-6.4,4.3-10.5l-12.2-29.6c-1.8-4-6.5-5.8-10.6-4
		c-3.9,1.7-5.7,6.2-4.2,10.1L100.5,121.5z"/>
	
		<linearGradient id="SVGID_4_" gradientUnits="userSpaceOnUse" x1="-206.8883" y1="-96.38" x2="-206.8883" y2="-141.599" gradientTransform="matrix(8 0 0 8 1714.8267 1190.8993)">
		<stop  offset="0" style="stop-color:#DF5E00"/>
		<stop  offset="1" style="stop-color:#E7853D"/>
	</linearGradient>
	<path class="st3" d="M65.5,150.6c3.2,3,8.3,2.9,11.3-0.4c2.9-3.1,2.9-7.9,0-10.9l-22.6-22.6c-3.1-3.2-8.1-3.3-11.3-0.2
		s-3.3,8.1-0.2,11.3c0.1,0.1,0.1,0.1,0.2,0.2L65.5,150.6z"/>
	
		<linearGradient id="SVGID_5_" gradientUnits="userSpaceOnUse" x1="-210.2832" y1="-96.38" x2="-210.2832" y2="-141.599" gradientTransform="matrix(8 0 0 8 1714.8267 1190.8993)">
		<stop  offset="0" style="stop-color:#DF5E00"/>
		<stop  offset="1" style="stop-color:#E7853D"/>
	</linearGradient>
	<path class="st4" d="M14.7,178.6l29.6,12.2c4.1,1.7,8.8-0.2,10.5-4.3s-0.2-8.8-4.3-10.5l-29.6-12.2c-4.1-1.7-8.8,0.2-10.5,4.3
		C8.7,172.2,10.6,176.9,14.7,178.6z"/>
	
		<linearGradient id="SVGID_6_" gradientUnits="userSpaceOnUse" x1="-211.3502" y1="-96.38" x2="-211.3502" y2="-141.599" gradientTransform="matrix(8 0 0 8 1714.8267 1190.8993)">
		<stop  offset="0" style="stop-color:#DF5E00"/>
		<stop  offset="1" style="stop-color:#E7853D"/>
	</linearGradient>
	<path class="st5" d="M8,236.1h32c4.4,0,8-3.6,8-8s-3.6-8-8-8H8c-4.4,0-8,3.6-8,8S3.6,236.1,8,236.1z"/>
</g>
<rect x="-187.3" y="146.3" class="st6" width="104" height="98"/>
<rect x="-187.3" y="267.1" class="st7" width="104" height="98"/>
</svg>
