<?xml version="1.0" encoding="utf-8"?>
<!-- Generator: Adobe Illustrator 22.1.0, SVG Export Plug-In . SVG Version: 6.00 Build 0)  -->
<svg version="1.1" id="Capa_1" xmlns="http://www.w3.org/2000/svg" xmlns:xlink="http://www.w3.org/1999/xlink" x="0px" y="0px"
	 viewBox="0 0 480.2 480.2" style="enable-background:new 0 0 480.2 480.2;" xml:space="preserve">
<style type="text/css">
	.st0{fill:url(#SVGID_1_);}
	.st1{fill:url(#SVGID_2_);}
	.st2{fill:url(#SVGID_3_);}
	.st3{fill:url(#SVGID_4_);}
	.st4{fill:url(#SVGID_5_);}
	.st5{fill:url(#SVGID_6_);}
	.st6{fill:url(#SVGID_7_);}
	.st7{fill:url(#SVGID_8_);}
	.st8{fill:url(#SVGID_9_);}
	.st9{fill:url(#SVGID_10_);}
	.st10{fill:url(#SVGID_11_);}
	.st11{fill:url(#SVGID_12_);}
	.st12{fill:url(#SVGID_13_);}
	.st13{fill:url(#SVGID_14_);}
	.st14{fill:url(#SVGID_15_);}
	.st15{fill:url(#SVGID_16_);}
	.st16{fill:#E7853D;}
	.st17{fill:#DF5E00;}
</style>
<linearGradient id="SVGID_1_" gradientUnits="userSpaceOnUse" x1="-184.338" y1="-23.391" x2="-184.338" y2="-79.474" gradientTransform="matrix(8 0 0 8 1714.8267 671.995)">
	<stop  offset="0" style="stop-color:#DF5E00"/>
	<stop  offset="1" style="stop-color:#E7853D"/>
</linearGradient>
<path class="st0" d="M376,146.5c-8.1,0-16.2,0.9-24.1,2.8C349.1,91.9,300.3,47.8,243,50.6c-24.4,1.2-47.7,11-65.6,27.7
	C131,64.1,81.9,90.3,67.8,136.7c-4.6,15.2-5,31.3-1.2,46.7c-7.4,8.8-12.8,19.1-15.8,30.2c-38,11.7-59.3,52-47.6,90
	c9.3,30.2,37.2,50.8,68.8,50.8h304c3,0,5.8-0.1,8.7-0.3c57.2-4.7,99.9-54.9,95.2-112.1C475.5,188,430.3,146.4,376,146.5z M152,90.5
	c4.4,0,8.7,0.4,13,1.2c-1,1.3-1.8,2.6-2.7,3.9c-0.6,0.8-1.2,1.6-1.7,2.4c-1.7,2.6-3.3,5.2-4.7,8c-0.2,0.4-0.3,0.7-0.5,1.1
	c-1.2,2.4-2.4,4.8-3.4,7.3c-0.4,1-0.7,1.9-1.1,2.9c-0.7,1.9-1.4,3.9-2.1,5.9c-0.4,1.1-0.7,2.2-1,3.3c-0.5,1.9-1,3.9-1.4,5.8
	c-0.2,1.1-0.5,2.3-0.7,3.4c-0.4,2.1-0.7,4.2-0.9,6.4c-0.1,1-0.3,2-0.4,3c-0.3,3.2-0.5,6.3-0.5,9.5v1.6c-5.3-1.1-10.6-1.6-16-1.6
	c-2.5,0-5,0.2-7.5,0.4c-0.8,0.1-1.5,0.2-2.3,0.3c-1.8,0.2-3.5,0.5-5.2,0.8c-0.8,0.2-1.6,0.3-2.4,0.5c-1.8,0.4-3.7,0.9-5.5,1.4
	c-0.6,0.2-1.2,0.3-1.7,0.5c-2.3,0.8-4.6,1.6-6.8,2.6c-0.6,0.3-1.2,0.6-1.8,0.8c-1.6,0.8-3.3,1.6-4.9,2.4c-0.8,0.4-1.5,0.9-2.3,1.3
	c-1.4,0.8-2.9,1.8-4.2,2.7c-0.7,0.5-1.4,0.9-2.1,1.4c-0.3,0.2-0.5,0.4-0.8,0.6c-0.3-2.6-0.4-5.1-0.5-7.7
	C80.1,122.7,112.3,90.5,152,90.5z M383.3,338.2c-2.4,0.2-4.8,0.3-7.3,0.3H72c-30.9,0-56-25.1-56-56c0-26,17.9-48.5,43.2-54.5
	c3-0.7,5.4-3.1,6-6.2c6.1-29.8,32.3-51.2,62.7-51.3c7.5,0,14.9,1.3,21.9,3.9c4.1,1.6,8.8-0.5,10.3-4.6c0.5-1.3,0.6-2.6,0.5-4
	c-0.5-3.8-0.7-7.6-0.7-11.4c0-5.7,0.5-11.5,1.6-17.1c8.1-41.3,44.4-71,86.4-70.9c48.6,0.1,87.9,39.4,88,88c0,1.7-0.1,3.4-0.2,5.2
	c-0.2,4.4,3.2,8.2,7.6,8.3c1,0,2.1-0.1,3.1-0.5c9.4-3.4,19.4-5.1,29.4-5c48.6-0.1,88.1,39.2,88.2,87.8
	C464.3,296.2,429.1,334.5,383.3,338.2z"/>
<g>
	
		<linearGradient id="SVGID_2_" gradientUnits="userSpaceOnUse" x1="-195.3502" y1="-23.391" x2="-195.3502" y2="-79.474" gradientTransform="matrix(8 0 0 8 1714.8267 671.995)">
		<stop  offset="0" style="stop-color:#DF5E00"/>
		<stop  offset="1" style="stop-color:#E7853D"/>
	</linearGradient>
	<path class="st1" d="M152,58.5c-4.4,0-8-3.6-8-8v-32c0-4.4,3.6-8,8-8s8,3.6,8,8v32C160,54.9,156.4,58.5,152,58.5z"/>
	
		<linearGradient id="SVGID_3_" gradientUnits="userSpaceOnUse" x1="-201.621" y1="-23.391" x2="-201.621" y2="-79.474" gradientTransform="matrix(8 0 0 8 1714.8267 671.995)">
		<stop  offset="0" style="stop-color:#DF5E00"/>
		<stop  offset="1" style="stop-color:#E7853D"/>
	</linearGradient>
	<path class="st2" d="M107.9,68.9c-3.2,0-6.2-1.9-7.4-4.9L88.3,34.3c-1.6-4.1,0.5-8.8,4.6-10.3c4-1.5,8.4,0.3,10.1,4.2l12.2,29.6
		c1.7,4.1-0.3,8.8-4.3,10.4C110,68.7,109,68.9,107.9,68.9z"/>
	
		<linearGradient id="SVGID_4_" gradientUnits="userSpaceOnUse" x1="-206.8775" y1="-23.391" x2="-206.8775" y2="-79.474" gradientTransform="matrix(8 0 0 8 1714.8267 671.995)">
		<stop  offset="0" style="stop-color:#DF5E00"/>
		<stop  offset="1" style="stop-color:#E7853D"/>
	</linearGradient>
	<path class="st3" d="M71.2,95.3c-2.1,0-4.2-0.8-5.7-2.3L42.9,70.3c-3.2-3.1-3.3-8.1-0.2-11.3s8.1-3.3,11.3-0.2
		c0.1,0.1,0.1,0.1,0.2,0.2l22.6,22.6c3.1,3.1,3.1,8.2,0,11.3C75.3,94.4,73.3,95.3,71.2,95.3L71.2,95.3z"/>
	
		<linearGradient id="SVGID_5_" gradientUnits="userSpaceOnUse" x1="-210.2844" y1="-23.391" x2="-210.2844" y2="-79.474" gradientTransform="matrix(8 0 0 8 1714.8267 671.995)">
		<stop  offset="0" style="stop-color:#DF5E00"/>
		<stop  offset="1" style="stop-color:#E7853D"/>
	</linearGradient>
	<path class="st4" d="M47.3,133.8c-1,0-2.1-0.2-3.1-0.6l-29.6-12.2c-4.1-1.7-6-6.4-4.3-10.5s6.4-6,10.5-4.3l29.6,12.2
		c4.1,1.7,6,6.4,4.3,10.5C53.5,131.8,50.6,133.8,47.3,133.8L47.3,133.8z"/>
	
		<linearGradient id="SVGID_6_" gradientUnits="userSpaceOnUse" x1="-211.3502" y1="-23.391" x2="-211.3502" y2="-79.474" gradientTransform="matrix(8 0 0 8 1714.8267 671.995)">
		<stop  offset="0" style="stop-color:#DF5E00"/>
		<stop  offset="1" style="stop-color:#E7853D"/>
	</linearGradient>
	<path class="st5" d="M40,178.5H8c-4.4,0-8-3.6-8-8s3.6-8,8-8h32c4.4,0,8,3.6,8,8S44.4,178.5,40,178.5z"/>
	
		<linearGradient id="SVGID_7_" gradientUnits="userSpaceOnUse" x1="-186.3562" y1="-23.391" x2="-186.3562" y2="-79.474" gradientTransform="matrix(8 0 0 8 1714.8267 671.995)">
		<stop  offset="0" style="stop-color:#DF5E00"/>
		<stop  offset="1" style="stop-color:#E7853D"/>
	</linearGradient>
	<path class="st6" d="M212.7,413.8c-4.4,0-8-3.6-8-8c0-2.1,0.8-4.2,2.3-5.7l22.6-22.6c3.2-3.1,8.2-3,11.3,0.2c3,3.1,3,8,0,11.1
		l-22.6,22.6C216.9,412.9,214.8,413.8,212.7,413.8L212.7,413.8z"/>
	
		<linearGradient id="SVGID_8_" gradientUnits="userSpaceOnUse" x1="-192.3439" y1="-23.391" x2="-192.3439" y2="-79.474" gradientTransform="matrix(8 0 0 8 1714.8267 671.995)">
		<stop  offset="0" style="stop-color:#DF5E00"/>
		<stop  offset="1" style="stop-color:#E7853D"/>
	</linearGradient>
	<path class="st7" d="M164.7,413.8c-4.4,0-8-3.6-8-8c0-2.1,0.8-4.2,2.3-5.7l22.6-22.6c3.1-3.2,8.1-3.3,11.3-0.2
		c3.2,3.1,3.3,8.1,0.2,11.3c-0.1,0.1-0.1,0.1-0.2,0.2l-22.6,22.6C168.9,412.9,166.8,413.8,164.7,413.8L164.7,413.8z"/>
	
		<linearGradient id="SVGID_9_" gradientUnits="userSpaceOnUse" x1="-198.3439" y1="-23.391" x2="-198.3439" y2="-79.474" gradientTransform="matrix(8 0 0 8 1714.8267 671.995)">
		<stop  offset="0" style="stop-color:#DF5E00"/>
		<stop  offset="1" style="stop-color:#E7853D"/>
	</linearGradient>
	<path class="st8" d="M116.7,413.8c-4.4,0-8-3.6-8-8c0-2.1,0.8-4.2,2.3-5.7l22.6-22.6c3.1-3.2,8.1-3.3,11.3-0.2
		c3.2,3.1,3.3,8.1,0.2,11.3c-0.1,0.1-0.1,0.1-0.2,0.2l-22.6,22.6C120.9,412.9,118.8,413.8,116.7,413.8L116.7,413.8z"/>
	
		<linearGradient id="SVGID_10_" gradientUnits="userSpaceOnUse" x1="-180.3562" y1="-23.391" x2="-180.3562" y2="-79.474" gradientTransform="matrix(8 0 0 8 1714.8267 671.995)">
		<stop  offset="0" style="stop-color:#DF5E00"/>
		<stop  offset="1" style="stop-color:#E7853D"/>
	</linearGradient>
	<path class="st9" d="M260.7,413.8c-4.4,0-8-3.6-8-8c0-2.1,0.8-4.2,2.3-5.7l22.6-22.6c3.2-3.1,8.2-3,11.3,0.2c3,3.1,3,8,0,11.1
		l-22.6,22.6C264.9,412.9,262.8,413.8,260.7,413.8z"/>
	
		<linearGradient id="SVGID_11_" gradientUnits="userSpaceOnUse" x1="-174.3562" y1="-23.391" x2="-174.3562" y2="-79.474" gradientTransform="matrix(8 0 0 8 1714.8267 671.995)">
		<stop  offset="0" style="stop-color:#DF5E00"/>
		<stop  offset="1" style="stop-color:#E7853D"/>
	</linearGradient>
	<path class="st10" d="M308.7,413.8c-4.4,0-8-3.6-8-8c0-2.1,0.8-4.2,2.3-5.7l22.6-22.6c3.2-3.1,8.2-3,11.3,0.2c3,3.1,3,8,0,11.1
		l-22.6,22.6C312.9,412.9,310.8,413.8,308.7,413.8z"/>
	
		<linearGradient id="SVGID_12_" gradientUnits="userSpaceOnUse" x1="-193.3439" y1="-23.391" x2="-193.3439" y2="-79.474" gradientTransform="matrix(8 0 0 8 1714.8267 671.995)">
		<stop  offset="0" style="stop-color:#DF5E00"/>
		<stop  offset="1" style="stop-color:#E7853D"/>
	</linearGradient>
	<path class="st11" d="M156.7,469.8c-4.4,0-8-3.6-8-8c0-2.1,0.8-4.2,2.3-5.7l22.6-22.6c3.1-3.2,8.1-3.3,11.3-0.2
		c3.2,3.1,3.3,8.1,0.2,11.3c-0.1,0.1-0.1,0.1-0.2,0.2l-22.6,22.6C160.9,468.9,158.8,469.8,156.7,469.8L156.7,469.8z"/>
	
		<linearGradient id="SVGID_13_" gradientUnits="userSpaceOnUse" x1="-199.3439" y1="-23.391" x2="-199.3439" y2="-79.474" gradientTransform="matrix(8 0 0 8 1714.8267 671.995)">
		<stop  offset="0" style="stop-color:#DF5E00"/>
		<stop  offset="1" style="stop-color:#E7853D"/>
	</linearGradient>
	<path class="st12" d="M108.7,469.8c-4.4,0-8-3.6-8-8c0-2.1,0.8-4.2,2.3-5.7l22.6-22.6c3.1-3.2,8.1-3.3,11.3-0.2
		c3.2,3.1,3.3,8.1,0.2,11.3c-0.1,0.1-0.1,0.1-0.2,0.2l-22.6,22.6C112.9,468.9,110.8,469.8,108.7,469.8z"/>
	
		<linearGradient id="SVGID_14_" gradientUnits="userSpaceOnUse" x1="-205.3439" y1="-23.391" x2="-205.3439" y2="-79.474" gradientTransform="matrix(8 0 0 8 1714.8267 671.995)">
		<stop  offset="0" style="stop-color:#DF5E00"/>
		<stop  offset="1" style="stop-color:#E7853D"/>
	</linearGradient>
	<path class="st13" d="M60.7,469.8c-4.4,0-8-3.6-8-8c0-2.1,0.8-4.2,2.3-5.7l22.6-22.6c3.1-3.2,8.1-3.3,11.3-0.2
		c3.2,3.1,3.3,8.1,0.2,11.3c-0.1,0.1-0.1,0.1-0.2,0.2l-22.6,22.6C64.9,468.9,62.8,469.8,60.7,469.8z"/>
	
		<linearGradient id="SVGID_15_" gradientUnits="userSpaceOnUse" x1="-187.3439" y1="-23.391" x2="-187.3439" y2="-79.474" gradientTransform="matrix(8 0 0 8 1714.8267 671.995)">
		<stop  offset="0" style="stop-color:#DF5E00"/>
		<stop  offset="1" style="stop-color:#E7853D"/>
	</linearGradient>
	<path class="st14" d="M204.7,469.8c-4.4,0-8-3.6-8-8c0-2.1,0.8-4.2,2.3-5.7l22.6-22.6c3.1-3.2,8.1-3.3,11.3-0.2
		c3.2,3.1,3.3,8.1,0.2,11.3c-0.1,0.1-0.1,0.1-0.2,0.2l-22.6,22.6C208.9,468.9,206.8,469.8,204.7,469.8L204.7,469.8z"/>
	
		<linearGradient id="SVGID_16_" gradientUnits="userSpaceOnUse" x1="-181.3562" y1="-23.391" x2="-181.3562" y2="-79.474" gradientTransform="matrix(8 0 0 8 1714.8267 671.995)">
		<stop  offset="0" style="stop-color:#DF5E00"/>
		<stop  offset="1" style="stop-color:#E7853D"/>
	</linearGradient>
	<path class="st15" d="M252.7,469.8c-4.4,0-8-3.6-8-8c0-2.1,0.8-4.2,2.3-5.7l22.6-22.6c3.2-3.1,8.2-3,11.3,0.2c3,3.1,3,8,0,11.1
		l-22.6,22.6C256.9,468.9,254.8,469.8,252.7,469.8z"/>
</g>
<rect x="-267" y="131.3" class="st16" width="104" height="98"/>
<rect x="-267" y="252.1" class="st17" width="104" height="98"/>
</svg>
