<?xml version="1.0" encoding="utf-8"?>
<!-- Generator: Adobe Illustrator 22.1.0, SVG Export Plug-In . SVG Version: 6.00 Build 0)  -->
<svg version="1.1" id="Capa_1" xmlns="http://www.w3.org/2000/svg" xmlns:xlink="http://www.w3.org/1999/xlink" x="0px" y="0px"
	 viewBox="0 0 480 480" style="enable-background:new 0 0 480 480;" xml:space="preserve">
<style type="text/css">
	.st0{fill:url(#SVGID_1_);}
	.st1{fill:url(#SVGID_2_);}
	.st2{fill:url(#SVGID_3_);}
	.st3{fill:url(#SVGID_4_);}
	.st4{fill:url(#SVGID_5_);}
	.st5{fill:url(#SVGID_6_);}
	.st6{fill:#E7853D;}
	.st7{fill:#DF5E00;}
</style>
<linearGradient id="SVGID_1_" gradientUnits="userSpaceOnUse" x1="-184.1933" y1="-12.6065" x2="-184.1933" y2="-72.3985" gradientTransform="matrix(8 0 0 8 1713.5676 578.1742)">
	<stop  offset="0" style="stop-color:#DF5E00"/>
	<stop  offset="1" style="stop-color:#E7853D"/>
</linearGradient>
<path class="st0" d="M376.2,304h-304c-39.8,0-72-32.2-72-72c0-31.6,20.6-59.5,50.8-68.8c9.5-34.9,41.1-59.1,77.2-59.2
	c5.4,0,10.7,0.5,16,1.6c0-0.5,0-1.1,0-1.6c0-57.4,46.5-104,104-104c55.4,0,101.2,43.5,103.9,98.8c55.9-13.1,111.9,21.6,125,77.5
	s-21.6,111.9-77.5,125c-4.8,1.1-9.8,1.9-14.7,2.4C382.1,304,379.2,304,376.2,304z M128.2,120c-30.4,0.1-56.6,21.5-62.7,51.3
	c-0.6,3.1-3,5.5-6,6.2c-30.1,7-48.8,37.2-41.8,67.3c5.9,25.3,28.5,43.2,54.5,43.2h304c2.5,0,4.9-0.1,7.3-0.3
	c48.4-3.9,84.5-46.4,80.6-94.8c-3.7-45.8-42-81-87.9-80.9c-10,0-20,1.7-29.5,5c-4.2,1.5-8.7-0.7-10.2-4.8c-0.4-1-0.5-2-0.5-3.1
	c0.1-1.7,0.2-3.4,0.2-5.2c0-48.6-39.4-88-88-88s-88,39.4-88,88c0,3.8,0.2,7.6,0.7,11.4c0.6,4.4-2.5,8.4-6.8,9c-1.3,0.2-2.7,0-4-0.5
	C143.1,121.3,135.7,120,128.2,120L128.2,120z"/>
<g>
	
		<linearGradient id="SVGID_2_" gradientUnits="userSpaceOnUse" x1="-192.1703" y1="-12.6065" x2="-192.1703" y2="-72.3985" gradientTransform="matrix(8 0 0 8 1713.5676 578.1742)">
		<stop  offset="0" style="stop-color:#DF5E00"/>
		<stop  offset="1" style="stop-color:#E7853D"/>
	</linearGradient>
	<path class="st1" d="M176.2,480c-17.7,0-32-14.3-32-32c0-14.6,20.8-52.5,25-59.9c2.5-3.9,7.7-4.9,11.5-2.4c1,0.6,1.8,1.5,2.4,2.4
		c4.2,7.4,25,45.3,25,59.9C208.2,465.7,193.9,480,176.2,480z M176.2,408.9c-7.1,12.2-12.5,25.4-16,39.1c0,8.8,7.2,16,16,16
		s16-7.2,16-16C188.7,434.3,183.3,421.2,176.2,408.9z"/>
	
		<linearGradient id="SVGID_3_" gradientUnits="userSpaceOnUse" x1="-176.1703" y1="-12.6065" x2="-176.1703" y2="-72.3985" gradientTransform="matrix(8 0 0 8 1713.5676 578.1742)">
		<stop  offset="0" style="stop-color:#DF5E00"/>
		<stop  offset="1" style="stop-color:#E7853D"/>
	</linearGradient>
	<path class="st2" d="M304.2,480c-17.7,0-32-14.3-32-32c0-14.6,20.8-52.5,25-59.9c2.5-3.9,7.7-4.9,11.5-2.4c1,0.6,1.8,1.5,2.4,2.4
		c4.2,7.4,25,45.3,25,59.9C336.2,465.7,321.9,480,304.2,480L304.2,480z M304.2,408.9c-7.1,12.2-12.5,25.4-16,39.1
		c0,8.8,7.2,16,16,16s16-7.2,16-16C316.7,434.3,311.3,421.2,304.2,408.9z"/>
</g>
<linearGradient id="SVGID_4_" gradientUnits="userSpaceOnUse" x1="-184.1703" y1="-12.6065" x2="-184.1703" y2="-72.3985" gradientTransform="matrix(8 0 0 8 1713.5676 578.1742)">
	<stop  offset="0" style="stop-color:#DF5E00"/>
	<stop  offset="1" style="stop-color:#E7853D"/>
</linearGradient>
<path class="st3" d="M240.2,416c-17.7,0-32-14.3-32-32c0-14.6,20.8-52.5,25-59.9c2.5-3.9,7.7-4.9,11.5-2.4c1,0.6,1.8,1.5,2.4,2.4
	c4.2,7.4,25,45.3,25,59.9C272.2,401.7,257.9,416,240.2,416z M240.2,344.9c-7.1,12.2-12.5,25.4-16,39.1c0,8.8,7.2,16,16,16
	s16-7.2,16-16C252.7,370.3,247.3,357.2,240.2,344.9z"/>
<g>
	
		<linearGradient id="SVGID_5_" gradientUnits="userSpaceOnUse" x1="-200.1703" y1="-12.6065" x2="-200.1703" y2="-72.3985" gradientTransform="matrix(8 0 0 8 1713.5676 578.1742)">
		<stop  offset="0" style="stop-color:#DF5E00"/>
		<stop  offset="1" style="stop-color:#E7853D"/>
	</linearGradient>
	<path class="st4" d="M112.2,416c-17.7,0-32-14.3-32-32c0-14.6,20.8-52.5,25-59.9c2.5-3.9,7.7-4.9,11.5-2.4c1,0.6,1.8,1.5,2.4,2.4
		c4.2,7.4,25,45.3,25,59.9C144.2,401.7,129.9,416,112.2,416z M112.2,344.9c-7.1,12.2-12.5,25.4-16,39.1c0,8.8,7.2,16,16,16
		s16-7.2,16-16C124.7,370.3,119.3,357.2,112.2,344.9z"/>
	
		<linearGradient id="SVGID_6_" gradientUnits="userSpaceOnUse" x1="-168.1703" y1="-12.6065" x2="-168.1703" y2="-72.3985" gradientTransform="matrix(8 0 0 8 1713.5676 578.1742)">
		<stop  offset="0" style="stop-color:#DF5E00"/>
		<stop  offset="1" style="stop-color:#E7853D"/>
	</linearGradient>
	<path class="st5" d="M368.2,416c-17.7,0-32-14.3-32-32c0-14.6,20.8-52.5,25-59.9c2.5-3.9,7.7-4.9,11.5-2.4c1,0.6,1.8,1.5,2.4,2.4
		c4.2,7.4,25,45.3,25,59.9C400.2,401.7,385.9,416,368.2,416L368.2,416z M368.2,344.9c-7.1,12.2-12.5,25.4-16,39.1
		c0,8.8,7.2,16,16,16s16-7.2,16-16C380.7,370.3,375.3,357.2,368.2,344.9z"/>
</g>
<rect x="-162" y="131.3" class="st6" width="104" height="98"/>
<rect x="-162" y="252.1" class="st7" width="104" height="98"/>
</svg>
