<?xml version="1.0" encoding="utf-8"?>
<!-- Generator: Adobe Illustrator 22.1.0, SVG Export Plug-In . SVG Version: 6.00 Build 0)  -->
<svg version="1.1" id="Capa_1" xmlns="http://www.w3.org/2000/svg" xmlns:xlink="http://www.w3.org/1999/xlink" x="0px" y="0px"
	 viewBox="0 0 483.8 483.8" style="enable-background:new 0 0 483.8 483.8;" xml:space="preserve">
<style type="text/css">
	.st0{fill:url(#SVGID_1_);}
	.st1{fill:#E7853D;}
	.st2{fill:#DF5E00;}
</style>
<linearGradient id="SVGID_1_" gradientUnits="userSpaceOnUse" x1="-180.8137" y1="-9.3485" x2="-180.8137" y2="-71.0085" gradientTransform="matrix(8 0 0 8 1688.3989 564.1923)">
	<stop  offset="0" style="stop-color:#DF5E00"/>
	<stop  offset="1" style="stop-color:#E7853D"/>
</linearGradient>
<path class="st0" d="M377.8,96c-8.1,0-16.2,0.9-24.1,2.8C350.8,41.5,302-2.7,244.6,0.1c-55.4,2.8-98.9,48.5-98.8,103.9v1.6
	c-5.3-1.1-10.6-1.6-16-1.6c-36.1,0.1-67.8,24.3-77.2,59.2c-38,11.7-59.3,52-47.6,90c9.3,30.2,37.2,50.8,68.8,50.8h115.1l-16,32h56.5
	l-16.5,147.7L302.7,304h75.1c3,0,5.8-0.1,8.7-0.3c57.2-4.7,99.9-54.9,95.2-112.1C477.3,137.5,432,95.9,377.8,96L377.8,96z
	 M198.7,320l32-64h-64l40-80h78.1l-32,64h64l-78.1,156.3l8.5-76.3H198.7z M385.1,287.8c-2.4,0.2-4.8,0.3-7.3,0.3h-67.1l32-64h-64
	l32-64H196.9l-56,112h64l-8,16H73.8c-30.9,0-56-25.1-56-56c0-26,17.9-48.5,43.2-54.5c3.1-0.7,5.4-3.1,6-6.2
	c6.1-29.8,32.3-51.2,62.7-51.3c7.5,0,14.9,1.3,21.9,3.9c4.1,1.6,8.8-0.5,10.3-4.6c0.5-1.3,0.6-2.6,0.5-4c-0.5-3.8-0.7-7.6-0.7-11.4
	c0-48.6,39.4-88,88-88s88,39.4,88,88c0,1.7-0.1,3.4-0.2,5.2c-0.2,4.4,3.2,8.2,7.6,8.3c1,0,2.1-0.1,3.1-0.5c9.4-3.4,19.4-5.1,29.4-5
	c48.6-0.1,88.1,39.2,88.2,87.8C466,245.8,430.8,284,385.1,287.8z"/>
<rect x="-202" y="133.3" class="st1" width="104" height="98"/>
<rect x="-202" y="254.1" class="st2" width="104" height="98"/>
</svg>
