<?xml version="1.0" encoding="utf-8"?>
<!-- Generator: Adobe Illustrator 22.1.0, SVG Export Plug-In . SVG Version: 6.00 Build 0)  -->
<svg version="1.1" id="Capa_1" xmlns="http://www.w3.org/2000/svg" xmlns:xlink="http://www.w3.org/1999/xlink" x="0px" y="0px"
	 viewBox="0 0 480 480" style="enable-background:new 0 0 480 480;" xml:space="preserve">
<style type="text/css">
	.st0{fill:url(#SVGID_1_);}
	.st1{fill:url(#SVGID_2_);}
	.st2{fill:#E7853D;}
	.st3{fill:#DF5E00;}
</style>
<linearGradient id="SVGID_1_" gradientUnits="userSpaceOnUse" x1="-191.2267" y1="-12.1617" x2="-191.2267" y2="-74.9527" gradientTransform="matrix(8 0 0 8 1769.8066 577.6805)">
	<stop  offset="0" style="stop-color:#DF5E00"/>
	<stop  offset="1" style="stop-color:#E7853D"/>
</linearGradient>
<path class="st0" d="M376.2,304h-304c-39.7,0-72-32.3-72-72c0-15.9,5.2-31.3,14.9-43.8c2.8-3.7,6-7.1,9.5-10.1
	c4.9-4.3,10.3-7.9,16.1-10.7c3.3-1.7,6.7-3,10.2-4.1c2.4-9,6.4-17.5,11.8-25.1c2.1-3.1,4.5-6,7.1-8.7c2.6-2.8,5.5-5.4,8.5-7.7
	c1.7-1.5,3.5-2.9,5.4-4.1c3.2-2.1,6.5-4,10-5.7c15.7-7.5,33.5-9.7,50.6-6.2c0-0.5,0-1.1,0-1.6c0-3.7,0.2-7.4,0.6-11.1
	c0.6-6.1,1.8-12.2,3.5-18.2c2-6.9,4.7-13.5,8.1-19.7c0.2-0.4,0.4-0.9,0.7-1.2l0.1-0.1c4.5-8.2,10.1-15.8,16.7-22.4
	c21.9-22.3,52.6-33.6,83.6-30.8c2.9,0.3,5.6,0.6,8.4,1.1c1.6,0.2,3.6,0.6,5.5,1c45.3,10.6,78.1,49.8,80.7,96.2
	c55.9-13.1,111.9,21.6,125,77.5s-21.6,111.9-77.5,125c-4.8,1.1-9.8,1.9-14.7,2.4C382,303.9,379.1,304,376.2,304z M128.2,120
	c-9.6,0-19,2.1-27.6,6.3c-2.8,1.4-5.4,2.9-8,4.6c-1.4,0.9-2.7,1.9-4,3c-2.6,2-5,4.2-7.2,6.5c-2,2.2-3.9,4.5-5.6,6.9
	c-5,7.2-8.5,15.3-10.3,23.9c-0.6,3-2.9,5.5-6,6.2c-4,0.9-7.9,2.3-11.6,4.1c-4.6,2.2-8.9,5.1-12.7,8.5c-2.7,2.3-5.2,4.9-7.3,7.8
	c-7.6,9.8-11.7,21.8-11.7,34.1c0,30.9,25.1,56,56,56h304c2.5,0,4.9-0.1,7.3-0.3c48.4-3.9,84.5-46.4,80.6-94.8
	c-3.7-45.8-42-81-87.9-80.9c-10,0-20,1.7-29.4,5c-4.2,1.5-8.7-0.7-10.2-4.8c-0.4-1-0.5-2-0.5-3c0.1-1.7,0.2-3.5,0.2-5.2
	c-0.2-41-28.5-76.5-68.4-85.8c-1.5-0.4-3-0.6-4.5-0.8c-2.6-0.5-4.9-0.8-7.2-1c-2.6-0.2-5.2-0.4-7.9-0.4
	c-23.7-0.1-46.4,9.4-62.9,26.4c-5.6,5.6-10.3,12-14,18.9l-0.3,0.5l-0.2,0.3c-3,5.4-5.4,11.1-7.1,17.1c-1.5,5.1-2.5,10.3-3,15.5
	c-0.4,3.1-0.5,6.2-0.5,9.3c0,3.8,0.2,7.6,0.7,11.4c0.6,4.4-2.5,8.4-6.8,9c-1.3,0.2-2.7,0-4-0.5C143.1,121.3,135.7,119.9,128.2,120
	L128.2,120z"/>
<linearGradient id="SVGID_2_" gradientUnits="userSpaceOnUse" x1="-192.2097" y1="-12.1617" x2="-192.2097" y2="-74.9527" gradientTransform="matrix(8 0 0 8 1769.8066 577.6805)">
	<stop  offset="0" style="stop-color:#DF5E00"/>
	<stop  offset="1" style="stop-color:#E7853D"/>
</linearGradient>
<path class="st1" d="M295.6,404l-27.7,7.4L248.2,400l19.8-11.4l27.7,7.4c4.3,1.1,8.6-1.4,9.8-5.7c1.1-4.2-1.4-8.6-5.6-9.7l-12.2-3.3
	l11-6.3c3.8-2.2,5.1-7.1,2.9-10.9c-2.2-3.8-7-5.1-10.9-2.9l-11,6.3l3.3-12.2c1.1-4.3-1.4-8.7-5.7-9.8c-4.3-1.1-8.7,1.4-9.8,5.7
	l-7.4,27.7l-19.8,11.4v-22.8l20.3-20.3c3.2-3.1,3.3-8.1,0.2-11.3c-3.1-3.2-8.1-3.3-11.3-0.2c-0.1,0.1-0.1,0.1-0.2,0.2l-9,9V328
	c0-4.4-3.6-8-8-8s-8,3.6-8,8v12.7l-9-9c-3.1-3.2-8.1-3.3-11.3-0.2c-3.2,3.1-3.3,8.1-0.2,11.3c0.1,0.1,0.1,0.1,0.2,0.2l20.3,20.3
	v22.8l-19.8-11.4L197,347c-1.1-4.3-5.5-6.8-9.8-5.7c-4.3,1.1-6.8,5.5-5.7,9.8l3.3,12.2l-11-6.3c-3.8-2.2-8.7-0.8-10.9,3
	c-2.2,3.8-0.9,8.6,2.9,10.9l11,6.3l-12.2,3.3c-4.3,1.1-6.8,5.5-5.7,9.8c1.1,4.3,5.5,6.8,9.8,5.7c0,0,0,0,0.1,0l27.7-7.4l19.8,11.4
	l-19.8,11.4l-27.7-7.4c-4.3-1.1-8.6,1.4-9.8,5.7c-1.1,4.2,1.4,8.6,5.6,9.8l12.2,3.3l-11,6.3c-3.8,2.2-5.2,7.1-3,10.9s7.1,5.2,10.9,3
	c0,0,0.1,0,0.1-0.1l11-6.3l-3.3,12.2c-1.1,4.3,1.4,8.7,5.7,9.8c0,0,0,0,0,0c0.7,0.2,1.4,0.3,2.1,0.3c3.6,0,6.8-2.4,7.7-5.9l7.4-27.7
	l19.8-11.4v22.8L203.9,457c-3.2,3.1-3.3,8.1-0.2,11.3c3.1,3.2,8.1,3.3,11.3,0.2c0.1-0.1,0.1-0.1,0.2-0.2l9-9V472c0,4.4,3.6,8,8,8
	s8-3.6,8-8v-12.7l9,9c3.1,3.2,8.1,3.3,11.3,0.2c3.2-3.1,3.3-8.1,0.2-11.3c-0.1-0.1-0.1-0.1-0.2-0.2l-20.3-20.3v-22.8l19.8,11.4
	l7.4,27.7c0.9,3.5,4.1,5.9,7.7,5.9c0.7,0,1.4-0.1,2.1-0.3c4.3-1.1,6.8-5.5,5.7-9.8c0,0,0,0,0,0l-3.3-12.2l11,6.3
	c3.8,2.2,8.7,1,10.9-2.9s1-8.7-2.9-10.9c0,0-0.1,0-0.1-0.1l-11-6.3l12.2-3.3c4.3-1.2,6.8-5.6,5.6-9.8
	C304.2,405.4,299.9,402.9,295.6,404L295.6,404z"/>
<rect x="-195" y="131.3" class="st2" width="104" height="98"/>
<rect x="-195" y="252.1" class="st3" width="104" height="98"/>
</svg>
