<?xml version="1.0" encoding="utf-8"?>
<!-- Generator: Adobe Illustrator 22.1.0, SVG Export Plug-In . SVG Version: 6.00 Build 0)  -->
<svg version="1.1" id="Capa_1" xmlns="http://www.w3.org/2000/svg" xmlns:xlink="http://www.w3.org/1999/xlink" x="0px" y="0px"
	 viewBox="0 0 480.1 480.1" style="enable-background:new 0 0 480.1 480.1;" xml:space="preserve">
<style type="text/css">
	.st0{fill:url(#SVGID_1_);}
	.st1{fill:url(#SVGID_2_);}
	.st2{fill:url(#SVGID_3_);}
	.st3{fill:url(#SVGID_4_);}
	.st4{fill:url(#SVGID_5_);}
	.st5{fill:url(#SVGID_6_);}
	.st6{fill:url(#SVGID_7_);}
	.st7{fill:url(#SVGID_8_);}
	.st8{fill:url(#SVGID_9_);}
	.st9{fill:url(#SVGID_10_);}
	.st10{fill:url(#SVGID_11_);}
	.st11{fill:#E7853D;}
	.st12{fill:#DF5E00;}
</style>
<linearGradient id="SVGID_1_" gradientUnits="userSpaceOnUse" x1="-179.8287" y1="-13.5489" x2="-179.8287" y2="-73.0099" gradientTransform="matrix(8 0 0 8 1714.6825 578.205)">
	<stop  offset="0" style="stop-color:#DF5E00"/>
	<stop  offset="1" style="stop-color:#E7853D"/>
</linearGradient>
<path class="st0" d="M360,216H80c-4.4,0-8-3.6-8-8s3.6-8,8-8h280c57.4,0,104-46.6,104-104c0-31.1-13.9-60.5-37.9-80.3
	c-3.4-2.8-3.9-7.9-1.1-11.3s7.9-3.9,11.3-1.1l0,0c51.1,42.2,58.4,117.8,16.3,168.9C429.9,200,395.9,216,360,216L360,216z"/>
<g>
	
		<linearGradient id="SVGID_2_" gradientUnits="userSpaceOnUse" x1="-178.831" y1="-13.5489" x2="-178.831" y2="-73.0099" gradientTransform="matrix(8 0 0 8 1714.6825 578.205)">
		<stop  offset="0" style="stop-color:#DF5E00"/>
		<stop  offset="1" style="stop-color:#E7853D"/>
	</linearGradient>
	<path class="st1" d="M360,184H128c-4.4,0-8-3.6-8-8s3.6-8,8-8h232c39.8,0,72-32.3,72-72c0-13.8-4-27.3-11.4-38.9
		c-2.4-3.7-1.4-8.7,2.3-11.1c3.7-2.4,8.6-1.4,11.1,2.3c0,0,0.1,0.1,0.1,0.1c26.3,40.9,14.5,95.3-26.4,121.6
		C393.4,179.2,376.9,184,360,184z"/>
	
		<linearGradient id="SVGID_3_" gradientUnits="userSpaceOnUse" x1="-184.3325" y1="-13.5489" x2="-184.3325" y2="-73.0099" gradientTransform="matrix(8 0 0 8 1714.6825 578.205)">
		<stop  offset="0" style="stop-color:#DF5E00"/>
		<stop  offset="1" style="stop-color:#E7853D"/>
	</linearGradient>
	<path class="st2" d="M20.8,371.3c-2.7,0-5.3-1.4-6.7-3.7c-26.3-40.8-14.6-95.2,26.2-121.6c14.9-9.6,32.3-14.5,50-14H472
		c4.4,0,8,3.6,8,8s-3.6,8-8,8H90.2C50.5,246.8,17.3,278,16,317.7c-0.5,14.6,3.5,29,11.5,41.3c2.4,3.7,1.3,8.7-2.4,11.1
		C23.8,370.9,22.3,371.3,20.8,371.3L20.8,371.3z"/>
	
		<linearGradient id="SVGID_4_" gradientUnits="userSpaceOnUse" x1="-172.8297" y1="-13.5489" x2="-172.8297" y2="-73.0099" gradientTransform="matrix(8 0 0 8 1714.6825 578.205)">
		<stop  offset="0" style="stop-color:#DF5E00"/>
		<stop  offset="1" style="stop-color:#E7853D"/>
	</linearGradient>
	<path class="st3" d="M408,88c-4.4,0-8,3.6-8,8c0,22.1-17.9,40-40,40H256c-4.4,0-8,3.6-8,8s3.6,8,8,8h104c30.9,0,56-25.1,56-56
		C416,91.6,412.5,88,408,88z"/>
	
		<linearGradient id="SVGID_5_" gradientUnits="userSpaceOnUse" x1="-170.3297" y1="-13.5489" x2="-170.3297" y2="-73.0099" gradientTransform="matrix(8 0 0 8 1714.6825 578.205)">
		<stop  offset="0" style="stop-color:#DF5E00"/>
		<stop  offset="1" style="stop-color:#E7853D"/>
	</linearGradient>
	<path class="st4" d="M352,120c-17.7,0-32-14.3-32-32s14.3-32,32-32s32,14.3,32,32c0,4.4-3.6,8-8,8s-8-3.6-8-8c0-8.8-7.2-16-16-16
		s-16,7.2-16,16s7.2,16,16,16c4.4,0,8,3.6,8,8S356.5,120,352,120z"/>
	
		<linearGradient id="SVGID_6_" gradientUnits="userSpaceOnUse" x1="-187.3289" y1="-13.5489" x2="-187.3289" y2="-73.0099" gradientTransform="matrix(8 0 0 8 1714.6825 578.205)">
		<stop  offset="0" style="stop-color:#DF5E00"/>
		<stop  offset="1" style="stop-color:#E7853D"/>
	</linearGradient>
	<path class="st5" d="M311.3,478.4c-4.4,0-8-3.6-8-8c0-2.4,1.1-4.6,2.9-6.2c44.3-36.5,50.6-102.1,14.1-146.4
		c-19.8-23.9-49.2-37.8-80.2-37.8H80c-4.4,0-8-3.6-8-8s3.6-8,8-8h160c66.3,0,120,53.7,120,120c0,35.8-16,69.8-43.7,92.6
		C314.9,477.8,313.1,478.5,311.3,478.4L311.3,478.4z"/>
	
		<linearGradient id="SVGID_7_" gradientUnits="userSpaceOnUse" x1="-182.3316" y1="-13.5489" x2="-182.3316" y2="-73.0099" gradientTransform="matrix(8 0 0 8 1714.6825 578.205)">
		<stop  offset="0" style="stop-color:#DF5E00"/>
		<stop  offset="1" style="stop-color:#E7853D"/>
	</linearGradient>
	<path class="st6" d="M307.3,435.3c-4.4,0-8-3.6-8-8c0-1.5,0.4-3,1.3-4.3c21.5-33.5,11.8-78-21.7-99.5
		c-11.6-7.5-25.1-11.4-38.9-11.4h-48c-4.4,0-8-3.6-8-8s3.6-8,8-8h48c48.6,0,88,39.4,88,88c0,16.9-4.9,33.4-14,47.6
		C312.6,433.9,310,435.3,307.3,435.3z"/>
	
		<linearGradient id="SVGID_8_" gradientUnits="userSpaceOnUse" x1="-184.3297" y1="-13.5489" x2="-184.3297" y2="-73.0099" gradientTransform="matrix(8 0 0 8 1714.6825 578.205)">
		<stop  offset="0" style="stop-color:#DF5E00"/>
		<stop  offset="1" style="stop-color:#E7853D"/>
	</linearGradient>
	<path class="st7" d="M240,328h-48c-4.4,0-8,3.6-8,8s3.6,8,8,8h48c22.1,0,40,17.9,40,40c0,4.4,3.6,8,8,8s8-3.6,8-8
		C296,353.1,271,328.1,240,328z"/>
	
		<linearGradient id="SVGID_9_" gradientUnits="userSpaceOnUse" x1="-185.3297" y1="-13.5489" x2="-185.3297" y2="-73.0099" gradientTransform="matrix(8 0 0 8 1714.6825 578.205)">
		<stop  offset="0" style="stop-color:#DF5E00"/>
		<stop  offset="1" style="stop-color:#E7853D"/>
	</linearGradient>
	<path class="st8" d="M232,424c-17.7,0-32-14.3-32-32s14.3-32,32-32c4.4,0,8,3.6,8,8s-3.6,8-8,8c-8.8,0-16,7.2-16,16s7.2,16,16,16
		s16-7.2,16-16c0-4.4,3.6-8,8-8c4.4,0,8,3.6,8,8C264,409.7,249.7,424,232,424z"/>
	
		<linearGradient id="SVGID_10_" gradientUnits="userSpaceOnUse" x1="-188.3297" y1="-13.5489" x2="-188.3297" y2="-73.0099" gradientTransform="matrix(8 0 0 8 1714.6825 578.205)">
		<stop  offset="0" style="stop-color:#DF5E00"/>
		<stop  offset="1" style="stop-color:#E7853D"/>
	</linearGradient>
	<path class="st9" d="M224,152h-32c-4.4,0-8-3.6-8-8s3.6-8,8-8h32c4.4,0,8,3.6,8,8S228.5,152,224,152z"/>
	
		<linearGradient id="SVGID_11_" gradientUnits="userSpaceOnUse" x1="-196.3297" y1="-13.5489" x2="-196.3297" y2="-73.0099" gradientTransform="matrix(8 0 0 8 1714.6825 578.205)">
		<stop  offset="0" style="stop-color:#DF5E00"/>
		<stop  offset="1" style="stop-color:#E7853D"/>
	</linearGradient>
	<path class="st10" d="M160,312h-32c-4.4,0-8-3.6-8-8s3.6-8,8-8h32c4.4,0,8,3.6,8,8S164.5,312,160,312z"/>
</g>
<rect x="-190" y="131.3" class="st11" width="104" height="98"/>
<rect x="-190" y="252.1" class="st12" width="104" height="98"/>
</svg>
