<?xml version="1.0" encoding="utf-8"?>
<!-- Generator: Adobe Illustrator 22.1.0, SVG Export Plug-In . SVG Version: 6.00 Build 0)  -->
<svg version="1.1" id="Capa_1" xmlns="http://www.w3.org/2000/svg" xmlns:xlink="http://www.w3.org/1999/xlink" x="0px" y="0px"
	 viewBox="0 0 480.2 480.2" style="enable-background:new 0 0 480.2 480.2;" xml:space="preserve">
<style type="text/css">
	.st0{fill:#635446;}
	.st1{fill:url(#SVGID_1_);}
</style>
<rect x="-275" y="191.5" class="st0" width="104" height="98"/>
<linearGradient id="SVGID_1_" gradientUnits="userSpaceOnUse" x1="240.1299" y1="416.9604" x2="240.1299" y2="89.8833">
	<stop  offset="0" style="stop-color:#635446"/>
	<stop  offset="1" style="stop-color:#635446"/>
</linearGradient>
<path class="st1" d="M479.9,295.7c-4.4-54.1-49.6-95.7-103.9-95.5c-8.1,0-16.2,0.9-24.1,2.8c-2.5-46.3-35.3-85.4-80.4-96.1
	c-13.5-3.1-28-2.5-30.9-2.4c-2.1,0.2-4.2,0.4-6.3,0.6l-0.4,0.1c-3.6,0.5-7.2,1.2-10.7,2l-0.6,0.1c-3.4,0.9-6.8,1.9-10.1,3.1
	l-0.9,0.3c-3.1,1.2-6.2,2.5-9.2,3.9c-0.5,0.2-0.9,0.4-1.4,0.7c-2.8,1.4-5.5,3-8.1,4.6c-0.6,0.4-1.2,0.7-1.8,1.1
	c-2.5,1.6-4.9,3.4-7.2,5.2c-0.6,0.5-1.3,0.9-1.9,1.5c-2.9,2.4-5.6,4.9-8.3,7.5c-6.6,6.7-12.2,14.3-16.7,22.5v-0.1l-0.1,0.1
	c-0.2,0.4-0.5,0.8-0.6,1.2c-3.4,6.3-6.1,12.9-8.1,19.8c-1.7,5.9-2.9,12-3.6,18.2c-0.4,3.7-0.7,7.4-0.6,11.2v1.6
	c-17.1-3.4-34.8-1.2-50.6,6.2c-3.4,1.7-6.8,3.6-10,5.7c-1.9,1.2-3.7,2.6-5.4,4.1c-3,2.4-5.8,5-8.5,7.8c-2.6,2.7-5,5.6-7.1,8.7
	c-5.4,7.6-9.3,16.1-11.8,25.1c-3.5,1.1-6.9,2.4-10.2,4.1c-1.6,0.8-3.2,1.7-4.8,2.6c-8.8,5.8-14.5,11.1-18,14.8c0,0,0,0,0,0
	c-1,1.1-2,2.2-2.9,3.4c-9.7,12.5-15,28-14.9,43.8c0,39.7,32.3,72,72,72h304c3,0,5.8-0.1,8.7-0.3c54.4-4.4,95.6-49.9,95.6-103.5
	C480.2,301.4,480.1,298.6,479.9,295.7z"/>
</svg>
