<?xml version="1.0" encoding="utf-8"?>
<!-- Generator: Adobe Illustrator 22.1.0, SVG Export Plug-In . SVG Version: 6.00 Build 0)  -->
<svg version="1.1" id="Capa_1" xmlns="http://www.w3.org/2000/svg" xmlns:xlink="http://www.w3.org/1999/xlink" x="0px" y="0px"
	 viewBox="0 0 480.1 480.1" style="enable-background:new 0 0 480.1 480.1;" xml:space="preserve">
<style type="text/css">
	.st0{fill:url(#SVGID_1_);}
	.st1{fill:#E7853D;}
	.st2{fill:#635446;}
	.st3{fill:#DF5E00;}
</style>
<linearGradient id="SVGID_1_" gradientUnits="userSpaceOnUse" x1="-184.3409" y1="-14.4657" x2="-184.3409" y2="-75.8268" gradientTransform="matrix(8 0 0 8 1714.7596 578.3925)">
	<stop  offset="0" style="stop-color:#635446"/>
	<stop  offset="1" style="stop-color:#635446"/>
</linearGradient>
<path class="st0" d="M408,128.1h-99.7c-7.1,0-14.2-1.3-20.8-4l-25.7-10.2c-29.3-11.8-60.5-17.8-92.1-17.8h-17.1L64,80.9V72
	c17.7-13.3,21.3-38.3,8-56S33.7-5.3,16,8S-5.2,46.3,8,64c2.3,3,5,5.7,8,8v400.1c0,4.4,3.6,8,8,8h32c4.4,0,8-3.6,8-8V318.5l88.7-14.4
	h17.1c31.5,0,62.8-6,92.1-17.8l25.7-10.2c6.6-2.7,13.7-4,20.8-4H408c39.8,0,72-32.2,72-72S447.8,128.1,408,128.1L408,128.1z
	 M154,287.5c-0.6,0.4-1.3,0.6-2,0.6c-8.1,0-24-31.1-24-88s15.9-88,24-88c0.7,0,1.5,0.3,2,0.7c10.6,6,22,41.1,22,87.3
	S164.6,281.4,154,287.5z M40,16.1c13.3,0,24,10.7,24,24c0,13.3-10.7,24-24,24c-2.1,0-4.1-0.3-6.1-0.8c-2.1-0.5-4-1.3-5.9-2.4
	c-11.5-6.6-15.4-21.3-8.8-32.8C23.5,20.6,31.4,16.1,40,16.1z M48,464.1H32V79.3c0.3,0.1,0.6,0,0.9,0.1c2.3,0.4,4.7,0.7,7.1,0.7
	c2.4,0,4.8-0.3,7.1-0.7c0.3-0.1,0.6,0,0.9-0.1V464.1z M64,97.2l67.9,11.6c-13.1,18.6-19.9,55.1-19.9,91.3s6.7,72.5,19.8,91.2
	l-67.8,11C64,302.3,64,97.2,64,97.2z M408,256.1h-99.7c-9.2,0-18.2,1.7-26.7,5.1l-25.7,10.2c-25.9,10.4-53.5,16-81.4,16.6
	c0.1-0.2,0.2-0.4,0.3-0.6c1.4-2.3,2.6-4.7,3.7-7.2c0.2-0.5,0.4-1,0.6-1.5c1-2.3,1.9-4.7,2.8-7.3c0.2-0.6,0.4-1.1,0.6-1.7
	c0.9-2.9,1.8-6,2.6-9.1c0.2-0.7,0.3-1.4,0.5-2.1c0.7-2.8,1.3-5.7,1.9-8.7c0.1-0.6,0.2-1.1,0.3-1.7c0.6-3.4,1.1-6.8,1.6-10.3
	c0.1-0.8,0.2-1.6,0.3-2.5c0.4-3.3,0.8-6.5,1.1-9.8c0-0.4,0.1-0.8,0.1-1.1c0.3-3.6,0.5-7.2,0.7-10.8c0-0.9,0.1-1.7,0.1-2.6
	c0.2-3.6,0.3-7.2,0.3-10.8s-0.1-7.2-0.2-10.9c0-0.9-0.1-1.7-0.1-2.6c-0.2-3.6-0.4-7.2-0.7-10.8c0-0.4-0.1-0.8-0.1-1.2
	c-0.3-3.3-0.7-6.6-1.1-9.8c-0.1-0.8-0.2-1.7-0.3-2.5c-0.5-3.5-1-6.9-1.6-10.3c-0.1-0.6-0.2-1.1-0.3-1.7c-0.6-3-1.2-5.9-1.9-8.7
	c-0.2-0.7-0.3-1.4-0.5-2.1c-0.8-3.1-1.7-6.2-2.6-9.1c-0.2-0.6-0.4-1.2-0.6-1.8c-0.9-2.5-1.8-5-2.8-7.3c-0.2-0.5-0.4-1-0.6-1.5
	c-1.1-2.4-2.3-4.8-3.6-7.1c-0.1-0.2-0.2-0.5-0.3-0.7c27.9,0.6,55.5,6.2,81.4,16.6l25.6,10.2c8.5,3.4,17.6,5.2,26.8,5.2H408
	c30.9,0,56,25.1,56,56S439,256.1,408,256.1L408,256.1z"/>
<rect x="-238" y="131.3" class="st1" width="104" height="98"/>
<rect x="-238" y="10.5" class="st2" width="104" height="98"/>
<rect x="-238" y="252.1" class="st3" width="104" height="98"/>
<polygon class="st2" points="22.6,67.5 5.3,44.6 11.1,19.7 29,10.5 53.9,10.5 64,28 71.1,43.9 64,64.1 53.2,70.7 53.9,472.9 
	20.7,470.4 "/>
<path class="st2" d="M152,102c0,0-38.9,33.1-33.1,104.7s33.1,90.7,33.1,90.7l65.9-4.5l81.7-28.1l119.4,0.6l36.4-23.7l16-41.6
	l-17.9-47.6l-40.9-17.9l-56.2,1.3l-26.2,2.6l-31.9-0.6L265.8,125l-58.1-23H152z"/>
</svg>
