<?xml version="1.0" encoding="utf-8"?>
<!-- Generator: Adobe Illustrator 22.1.0, SVG Export Plug-In . SVG Version: 6.00 Build 0)  -->
<svg version="1.1" id="Layer_1" xmlns="http://www.w3.org/2000/svg" xmlns:xlink="http://www.w3.org/1999/xlink" x="0px" y="0px"
	 viewBox="0 0 392.4 392.4" style="enable-background:new 0 0 392.4 392.4;" xml:space="preserve">
<style type="text/css">
	.st0{fill:url(#SVGID_1_);}
	.st1{fill:url(#SVGID_2_);}
	.st2{fill:url(#SVGID_3_);}
	.st3{fill:url(#SVGID_4_);}
</style>
<g>
	<g>
		<g>
			<linearGradient id="SVGID_1_" gradientUnits="userSpaceOnUse" x1="54.2" y1="196.2" x2="338.2" y2="196.2">
				<stop  offset="0" style="stop-color:#635446"/>
				<stop  offset="1" style="stop-color:#887D72"/>
			</linearGradient>
			<path class="st0" d="M268.6,96c-18.8-26.4-38-54-52.8-82.8c-4-8-12.4-13.2-21.2-13.2s-17.2,4.8-21.2,13.2
				C159,41.6,140.6,68.4,123,94.4c-35.6,51.6-68.8,100-68.8,154c0,83.6,58.8,144,140,144c82,0,144-62,144-144
				C338.2,194.8,304.2,146.8,268.6,96z M194.2,376.4c-72,0-124-54-124-128c0-48.8,32-95.6,65.6-144.8c18-26.4,36.8-54,51.6-83.2
				c2-4,5.6-4.4,7.2-4.4c1.6,0,5.2,0.4,7.2,4.4c15.2,29.6,34.8,57.6,54,84.8c34,48.8,66.4,94.8,66.4,143.2
				C322.2,321.2,267,376.4,194.2,376.4z"/>
			<linearGradient id="SVGID_2_" gradientUnits="userSpaceOnUse" x1="103.4154" y1="158.3141" x2="160.2486" y2="158.3141">
				<stop  offset="0" style="stop-color:#635446"/>
				<stop  offset="1" style="stop-color:#887D72"/>
			</linearGradient>
			<path class="st1" d="M156.6,117.6c-3.6-2.4-8.8-1.6-11.2,2c-13.6,20.8-29.6,44.8-41.2,69.2c-2,4,0,8.8,4,10.8
				c1.2,0.4,2.4,0.8,3.6,0.8c2.8,0,6-1.6,7.2-4.4c11.2-23.6,26.4-46.8,40-66.8C161.4,125.2,160.2,120.4,156.6,117.6z"/>
			<linearGradient id="SVGID_3_" gradientUnits="userSpaceOnUse" x1="90.0638" y1="222.1238" x2="109.9473" y2="222.1238">
				<stop  offset="0" style="stop-color:#635446"/>
				<stop  offset="1" style="stop-color:#887D72"/>
			</linearGradient>
			<path class="st2" d="M104.6,208.8c-4-1.6-8.8,0.4-10.4,4.4c-1.6,4.4-3.2,8.8-4,13.2s2,8.4,6.4,9.6c0.4,0,1.2,0,1.6,0
				c3.6,0,7.2-2.8,8-6.4c0.8-3.6,1.6-7.2,3.2-10.8C111,215.2,109,210.8,104.6,208.8z"/>
		</g>
	</g>
</g>
<linearGradient id="SVGID_4_" gradientUnits="userSpaceOnUse" x1="-305.9433" y1="-18.8505" x2="-305.9433" y2="-312.1658" gradientTransform="matrix(8 0 0 8 2021.5676 886.1742)">
	<stop  offset="0" style="stop-color:#635446"/>
	<stop  offset="1" style="stop-color:#887D72"/>
</linearGradient>
<path class="st3" d="M-426,434.8c-86.7,0-157-70.3-157-157c0-71.7,102.2-257.4,122.8-293.9c12.3-18.9,37.6-24.2,56.5-11.9
	c4.8,3.1,8.8,7.2,11.9,11.9C-371,20.4-269,206.1-269,277.8C-269,364.5-339.3,434.8-426,434.8z M-426,85.9
	c-34.9,60-61.4,124.5-78.5,191.8c0,43.4,35.1,78.5,78.5,78.5s78.5-35.1,78.5-78.5C-364.6,210.5-391,145.9-426,85.9z"/>
</svg>
